<svg xmlns="http://www.w3.org/2000/svg" style="display: none;">
  <symbol id="icon-instagram" viewBox="0 0 24 24">
    <path d="M12 2.2c3.2 0 3.6 0 4.8.1 1.2.1 1.8.3 2.2.5.6.3 1 .7 1.5 1.3.5.6.9 1.2 1.1 1.8.2.4.4 1 .5 2.2.1 1.2.1 1.6.1 4.8s0 3.6-.1 4.8c-.1 1.2-.3 1.8-.5 2.2-.3.6-.7 1-1.3 1.5-.6.5-1.2.9-1.8 1.1-.4.2-1 .4-2.2.5-1.2.1-1.6.1-4.8.1s-3.6 0-4.8-.1c-1.2-.1-1.8-.3-2.2-.5-.6-.3-1-.7-1.5-1.3-.5-.6-.9-1.2-1.1-1.8-.2-.4-.4-1-.5-2.2C2.2 15.6 2.2 15.2 2.2 12s0-3.6.1-4.8c.1-1.2.3-1.8.5-2.2.3-.6.7-1 1.3-1.5.6-.5 1.2-.9 1.8-1.1.4-.2 1-.4 2.2-.5C8.4 2.2 8.8 2.2 12 2.2zm0-2.2C8.7 0 8.3 0 7.1.1 5.9.2 5 .4 4.2.7 3.3 1.1 2.5 1.6 1.8 2.3.9 3.2.4 4 .1 4.9-.2 5.7 0 6.6.1 7.8.2 9 .2 9.4.2 12c0 2.6 0 3 .1 4.2.1 1.2.3 2.1.6 2.9.3.8.8 1.5 1.5 2.2.7.7 1.4 1.2 2.2 1.5.8.3 1.7.5 2.9.6 1.2.1 1.6.1 4.2.1s3 0 4.2-.1c1.2-.1 2.1-.3 2.9-.6.8-.3 1.5-.8 2.2-1.5.7-.7 1.2-1.4 1.5-2.2.3-.8.5-1.7.6-2.9.1-1.2.1-1.6.1-4.2s0-3-.1-4.2c-.1-1.2-.3-2.1-.6-2.9-.3-.8-.8-1.5-1.5-2.2-.7-.7-1.4-1.2-2.2-1.5-.8-.3-1.7-.5-2.9-.6C15.6.2 15.2.2 12 .2zM12 5.8A6.2 6.2 0 1 0 18.2 12 6.2 6.2 0 0 0 12 5.8zm0 10.2A4 4 0 1 1 16 12a4 4 0 0 1-4 4zm6.4-11.6a1.4 1.4 0 1 1-1.4-1.4 1.4 1.4 0 0 1 1.4 1.4z"/>
  </symbol>

  <symbol id="icon-twitter" viewBox="0 0 24 24">
    <path d="M20.4 3H16l-3.5 4.9L8.3 3H2.2l6.8 9.1L2 21h4.4l3.9-5.5 4.6 5.5h6.9l-7.3-9.7L20.4 3zM16.6 19h-1.4l-9-12h1.4l9 12z"/>
  </symbol>

  <symbol id="icon-linkedin" viewBox="0 0 24 24">
    <path d="M4.98 3.5C4.98 4.88 3.87 6 2.5 6S0 4.88 0 3.5 1.12 1 2.5 1 4.98 2.12 4.98 3.5zM.5 8h4V24h-4V8zm7.5 0h3.8v2.2h.1c.5-.9 1.7-2.2 3.7-2.2 4 0 4.7 2.6 4.7 6V24h-4v-7.8c0-1.9-.1-4.4-2.7-4.4s-3.1 2.1-3.1 4.3V24h-4V8z"/>
  </symbol>
</svg>