<?xml version="1.0" standalone="no"?>
<!DOCTYPE svg PUBLIC "-//W3C//DTD SVG 20010904//EN"
 "http://www.w3.org/TR/2001/REC-SVG-20010904/DTD/svg10.dtd">
<svg version="1.0" xmlns="http://www.w3.org/2000/svg"
 width="1024.000000pt" height="1024.000000pt" viewBox="0 0 1024.000000 1024.000000"
 preserveAspectRatio="xMidYMid meet">

<g transform="translate(0.000000,1024.000000) scale(0.100000,-0.100000)"
fill="#000000" stroke="none">
<path d="M4945 9271 c-228 -144 -237 -149 -535 -333 -129 -80 -302 -188 -385
-240 -82 -52 -276 -173 -430 -269 -154 -96 -291 -184 -305 -196 -25 -21 -25
-23 -30 -222 l-5 -201 -157 95 c-86 52 -164 95 -173 95 -9 0 -98 -51 -198
-113 -100 -63 -288 -179 -417 -260 -129 -80 -241 -156 -249 -169 -12 -20 -15
-259 -17 -1595 l-2 -1571 161 -105 c550 -355 597 -383 597 -354 0 8 3 8 8 2 8
-12 511 -14 529 -2 6 4 14 1 16 -5 4 -10 7 -10 14 -1 11 15 67 -9 163 -72 39
-25 79 -45 90 -45 11 0 20 -7 20 -15 0 -8 6 -16 13 -17 6 0 19 -2 27 -2 8 -1
14 -7 13 -13 -2 -7 6 -15 17 -18 11 -4 20 -11 20 -17 0 -6 3 -9 6 -5 4 3 13 0
21 -8 18 -18 37 -20 27 -2 -4 7 -3 9 2 4 5 -5 9 -14 9 -20 0 -6 15 -20 33 -30
29 -17 36 -18 44 -6 8 11 9 11 4 -3 -4 -13 12 -28 62 -59 37 -23 90 -59 118
-80 l52 -38 0 42 c1 23 -5 48 -11 56 -9 11 -9 13 0 8 8 -5 13 3 15 25 2 18 5
-7 7 -57 1 -49 3 -95 3 -101 1 -11 213 -147 235 -150 16 -3 83 -44 83 -51 0
-3 -7 -3 -15 1 -22 8 -18 -2 6 -15 15 -8 19 -8 15 0 -12 18 -1 13 104 -51 55
-35 118 -73 140 -86 l38 -23 84 54 c46 29 133 84 193 122 176 109 186 115 180
125 -4 6 -8 10 -11 10 -3 0 -2 -5 2 -11 4 -7 1 -10 -7 -7 -8 3 -13 10 -12 16
1 5 -5 9 -15 8 -9 0 -17 4 -17 11 0 6 -4 15 -9 20 -5 5 -6 2 -1 -6 5 -9 3 -12
-6 -9 -8 3 -13 11 -11 17 1 7 -2 10 -7 6 -11 -6 -91 43 -91 56 0 14 15 10 41
-10 13 -10 40 -26 59 -36 19 -10 52 -31 73 -48 22 -17 42 -26 45 -20 4 5 66
45 137 88 72 44 147 92 169 107 39 28 63 27 82 -4 4 -6 3 -8 -4 -4 -11 7 -34
-5 -137 -69 -33 -20 -75 -46 -93 -58 -26 -15 -30 -22 -20 -29 10 -7 9 -8 -4
-4 -24 7 -48 -3 -48 -20 0 -8 -6 -11 -15 -8 -8 4 -15 1 -15 -4 0 -11 21 -9 62
4 15 4 19 3 13 -7 -4 -8 3 -3 14 11 18 21 20 22 16 5 -5 -16 -4 -16 6 2 7 13
27 28 45 35 19 7 34 16 34 20 0 4 7 8 15 8 8 0 15 3 15 8 0 4 18 16 40 26 22
11 40 23 40 29 0 5 6 7 13 5 13 -5 49 27 40 36 -3 3 5 3 17 1 30 -6 103 -50
216 -131 62 -45 95 -62 109 -58 16 4 17 3 5 -5 -8 -6 -10 -11 -5 -11 6 0 21
-10 35 -21 24 -20 23 -20 -13 1 l-37 22 -45 -27 c-25 -14 -43 -30 -40 -35 3
-5 0 -12 -6 -16 -8 -4 -9 -3 -5 4 4 7 4 12 0 12 -11 0 -274 -163 -274 -170 0
-3 8 -10 18 -16 9 -7 71 -46 137 -87 l120 -76 30 23 c16 12 89 58 160 103 72
44 253 158 403 252 151 94 277 171 280 171 4 0 -6 -10 -22 -23 -25 -20 -26
-23 -8 -23 11 0 19 3 16 7 -2 4 3 12 11 19 8 7 12 16 9 21 -3 5 9 17 25 27 17
10 28 22 23 27 -4 5 -1 5 6 1 7 -4 25 2 42 14 16 12 35 18 41 14 8 -4 9 -3 5
4 -4 6 4 16 16 23 20 11 99 61 195 123 31 20 31 21 15 41 -17 20 -17 20 5 1
22 -18 23 -18 94 29 56 37 73 44 81 34 7 -11 8 -10 6 4 -3 17 36 46 191 138
50 30 52 34 33 42 -25 11 -36 34 -16 34 7 0 11 -4 8 -8 -2 -4 1 -11 8 -15 13
-8 71 -14 63 -6 -3 3 0 11 6 18 8 9 5 15 -9 23 -11 6 -22 7 -26 4 -3 -3 -6 -3
-6 2 0 10 31 34 44 35 6 0 1 -7 -10 -15 -15 -11 -16 -15 -4 -16 8 -1 19 -1 23
0 5 1 6 -3 2 -9 -3 -5 -1 -10 6 -10 8 0 9 -3 0 -13 -11 -14 -5 -27 13 -27 6 0
5 4 -3 9 -11 7 -9 11 8 20 12 7 25 10 30 7 4 -3 8 1 8 9 0 11 -5 12 -20 4 -10
-6 -21 -8 -25 -5 -3 3 -2 6 3 6 4 0 1 8 -6 17 -8 9 -9 14 -4 11 6 -4 18 0 28
7 18 13 18 14 0 23 -10 5 -25 7 -33 5 -11 -3 -12 -2 -2 4 7 5 28 8 47 7 30 -3
35 0 36 19 1 20 1 20 8 -3 9 -30 -15 -51 -31 -29 -8 11 -9 10 -4 -3 3 -11 -2
-22 -15 -29 -11 -6 -19 -13 -16 -15 3 -3 45 20 95 51 76 47 89 59 84 77 -3 13
-1 19 5 15 13 -8 35 17 25 29 -4 4 1 2 11 -6 18 -13 17 -14 -8 -28 -15 -7 -25
-16 -22 -18 2 -3 20 4 39 15 27 16 41 19 65 12 25 -7 31 -6 27 4 -3 7 -14 11
-26 7 -14 -3 -19 -1 -14 6 10 16 -6 15 -24 -1 -12 -10 -12 -9 -1 5 7 10 23 16
34 15 14 -1 21 3 19 11 -1 8 2 11 7 8 5 -3 51 21 103 54 88 56 146 90 155 90
2 0 1 -5 -3 -12 -4 -7 -3 -8 5 -4 6 4 9 11 6 16 -3 5 16 21 41 36 26 16 42 30
35 32 -8 3 -16 1 -20 -4 -9 -14 -52 -36 -58 -30 -3 2 9 12 26 21 18 9 30 19
27 23 -2 4 6 7 19 7 13 0 21 -3 18 -7 -9 -15 12 -7 37 13 14 11 19 18 13 14
-7 -3 -13 -1 -13 5 0 7 8 9 20 5 13 -4 34 4 64 24 25 17 47 31 50 31 3 0 27
15 53 33 27 18 74 49 106 68 32 18 54 35 48 37 -5 2 -43 -20 -85 -48 -42 -28
-91 -53 -108 -55 -17 -3 -28 -2 -24 2 10 11 -15 33 -38 32 -20 -1 -19 -1 4
-12 27 -13 36 -52 14 -61 -19 -7 -28 12 -14 29 7 9 8 15 0 20 -5 3 -10 3 -10
-1 0 -4 -8 0 -18 9 -10 10 -22 14 -25 10 -4 -3 -7 4 -7 16 0 13 -4 19 -11 16
-11 -8 13 -51 28 -48 4 0 14 -5 21 -13 17 -19 8 -18 -37 6 -21 10 -41 16 -45
13 -3 -4 -6 -1 -6 6 0 8 7 11 15 7 8 -3 15 -1 15 5 0 6 -16 9 -37 7 -26 -2
-37 1 -36 9 2 7 -11 20 -28 28 -29 16 -32 15 -80 -15 -28 -17 -48 -26 -45 -21
4 6 29 23 55 38 43 24 48 30 40 49 -4 13 -8 661 -9 1441 0 865 -4 1421 -10
1427 -6 6 -16 4 -27 -5 -16 -13 -17 -12 -5 3 11 14 -1 25 -110 91 -309 187
-476 289 -728 447 -152 95 -1347 830 -1668 1026 -89 54 -237 145 -330 201 -92
57 -171 103 -177 103 -5 0 -95 -54 -200 -119z m257 -295 c29 -18 197 -121 373
-228 381 -232 602 -368 1025 -628 173 -106 387 -237 475 -290 88 -54 291 -177
450 -275 160 -98 302 -185 316 -193 20 -12 26 -23 26 -51 0 -20 -2 -26 -4 -13
-2 12 -7 22 -11 22 -4 0 -71 -39 -150 -88 l-143 -87 0 -515 1 -515 -217 -134
c-120 -74 -285 -176 -368 -227 -396 -241 -450 -276 -447 -285 1 -6 -2 -8 -8
-4 -6 4 -31 -5 -55 -20 -42 -24 -45 -24 -45 -7 0 14 33 38 116 87 63 37 112
71 107 75 -9 9 -194 118 -205 122 -11 4 -20 101 -11 114 5 6 175 115 379 243
l372 232 7 182 c3 100 5 231 3 291 l-3 110 -45 26 c-25 15 -259 159 -520 321
-261 162 -538 333 -615 379 -77 46 -171 104 -210 128 -91 59 -245 152 -250
152 -2 0 -5 -6 -8 -12 -2 -7 -3 -6 -2 3 2 16 -45 50 -262 185 l-111 69 -1 223
c-1 219 -1 222 18 210 11 -6 17 -16 15 -20 -3 -5 -2 -8 3 -7 26 4 33 -2 24
-19 -7 -14 -6 -19 4 -19 7 0 11 7 7 15 -3 10 0 13 9 10 8 -3 13 -11 11 -17 -1
-7 2 -10 8 -6 10 6 82 -32 88 -47 2 -4 10 -8 17 -8 8 0 19 -8 24 -17 6 -10 11
-14 11 -10 0 4 9 3 20 -3 11 -6 17 -16 14 -22 -4 -7 -3 -8 5 -4 14 9 83 -32
76 -45 -4 -5 0 -6 7 -4 8 3 22 -1 33 -10 16 -12 17 -14 3 -9 -11 4 -18 1 -18
-7 0 -7 3 -9 7 -6 3 4 13 1 21 -6 13 -9 14 -9 8 1 -11 19 6 14 46 -13 20 -14
40 -25 43 -25 15 0 74 -47 68 -54 -4 -4 1 -4 11 0 15 6 17 4 11 -7 -4 -8 -5
-11 0 -7 4 4 28 -5 54 -19 25 -14 42 -21 36 -15 -5 6 -156 99 -335 207 -179
109 -334 206 -345 216 -25 22 23 48 -470 -259 -198 -124 -436 -272 -530 -330
-93 -57 -191 -120 -217 -139 l-48 -35 0 -210 0 -210 -32 21 c-18 12 -90 56
-160 98 l-128 77 0 206 0 205 118 76 c64 42 362 229 662 417 300 187 599 374
665 416 66 42 121 76 122 76 2 0 26 -15 55 -34z m-52 -806 c0 -5 -6 -10 -14
-10 -8 0 -18 -5 -22 -12 -5 -8 -1 -9 12 -4 12 4 15 4 9 -2 -14 -13 -334 -212
-341 -212 -3 0 -2 5 2 12 4 7 3 8 -5 4 -6 -4 -9 -11 -6 -16 5 -9 -88 -65 -119
-71 -12 -3 15 -25 85 -70 155 -99 142 -94 197 -62 26 15 85 51 131 80 l84 53
36 -22 c20 -12 83 -52 141 -88 58 -37 120 -75 138 -86 17 -10 32 -21 32 -25 0
-6 -91 -64 -483 -306 l-128 -79 1 -222 c1 -207 -4 -246 -25 -211 -4 6 -8 105
-8 221 l-2 210 -263 158 c-144 87 -277 169 -295 183 l-32 24 3 -208 c3 -186 1
-208 -12 -203 -14 5 -16 35 -16 208 l0 202 126 79 c102 64 127 76 135 64 8
-11 9 -10 7 5 -2 10 3 21 11 24 10 3 12 0 8 -12 -4 -11 -3 -15 4 -11 6 4 8 13
5 21 -3 9 12 23 42 40 26 15 55 34 64 42 9 8 22 11 29 6 7 -4 10 -3 5 4 -8 13
30 36 44 27 6 -4 9 -2 8 4 -2 8 394 271 408 271 2 0 4 -4 4 -10z m-2023 -603
c132 -83 388 -242 633 -393 398 -245 870 -546 870 -554 0 -3 -66 -46 -148 -95
l-147 -90 -3 -1513 -2 -1512 -136 92 -137 91 -648 1301 -649 1301 0 -1072 c0
-590 -3 -1073 -7 -1073 -3 0 -67 40 -142 88 -75 49 -164 106 -199 127 l-63 38
1 1490 2 1490 -76 44 c-42 24 -76 46 -76 49 0 3 21 -6 47 -21 25 -15 62 -36
82 -47 l36 -19 305 185 c168 103 306 186 307 186 1 0 69 -42 150 -93z m2528
-5 c66 -40 174 -106 240 -147 66 -40 121 -72 123 -71 1 2 3 58 4 125 1 66 4
121 8 121 11 0 23 -419 18 -628 -3 -100 -1 -182 4 -182 4 0 70 -40 146 -89 76
-50 155 -98 175 -107 20 -10 37 -20 37 -23 0 -3 -96 -63 -213 -133 l-212 -128
4 -594 3 -594 -33 -18 c-113 -57 -468 -278 -462 -287 3 -6 1 -7 -5 -3 -6 4
-61 -23 -122 -60 -62 -37 -122 -68 -134 -69 -28 -3 -90 -35 -82 -42 3 -3 21 5
40 17 20 12 36 18 36 13 0 -6 -12 -16 -27 -24 -73 -37 -68 -14 -65 -299 2
-219 1 -259 -12 -269 -13 -11 -21 -9 -46 9 -36 26 -40 37 -5 14 l25 -16 0 259
0 259 -62 36 c-221 130 -325 210 -267 205 10 -1 19 -7 19 -15 0 -7 -5 -10 -12
-6 -7 4 -8 3 -4 -4 7 -12 33 -12 53 1 8 5 10 -1 8 -18 -1 -14 2 -25 6 -25 5 0
9 5 9 11 0 5 5 7 11 3 8 -5 8 -9 -1 -14 -9 -5 -9 -9 -1 -14 6 -4 15 -5 20 -2
5 4 11 0 14 -6 2 -7 4 111 3 263 l-1 275 -90 56 c-49 30 -105 63 -122 74 -32
18 -33 20 -33 84 l0 65 58 36 c31 20 94 60 139 89 l81 52 94 -59 c51 -32 105
-64 118 -71 65 -34 294 -178 296 -187 2 -6 -74 -59 -168 -119 l-171 -110 6
-170 c4 -94 7 -229 8 -301 0 -79 4 -122 9 -110 4 11 34 36 66 55 33 19 129 80
216 135 86 55 164 105 173 110 16 10 16 11 -3 11 -11 0 -19 -3 -16 -7 5 -9
-22 -19 -38 -15 -7 1 -9 1 -4 -2 13 -7 -16 -21 -31 -15 -12 5 -12 7 -1 14 10
7 10 9 1 9 -7 0 -13 5 -13 11 0 6 7 9 15 6 8 -4 17 -1 21 5 4 7 3 8 -4 4 -7
-4 -12 -2 -12 4 0 6 -5 8 -12 4 -7 -4 -2 6 10 23 20 28 21 33 8 58 -8 15 -12
35 -8 43 4 11 7 12 10 4 2 -7 8 -12 14 -12 6 0 6 6 -2 15 -7 8 -10 21 -7 29 3
8 -1 13 -11 12 -12 -1 -17 8 -18 32 0 19 4 31 10 28 6 -2 10 -9 8 -15 -1 -7 2
-10 8 -6 5 3 20 1 32 -6 34 -17 9 4 -34 30 -21 13 -38 18 -38 12 0 -16 -17
-13 -24 4 -3 8 -2 14 2 12 4 -1 42 20 85 46 l77 48 0 590 c0 324 -3 589 -6
589 -3 0 -60 -35 -127 -78 -272 -174 -349 -220 -334 -196 7 13 12 583 4 590
-5 5 -117 -52 -167 -86 -47 -32 -50 -32 -50 -10 0 16 4 20 16 16 8 -3 12 -2 9
4 -7 11 32 33 45 25 6 -4 9 -1 8 6 -2 6 3 14 11 17 9 3 11 0 6 -8 -5 -9 -4
-11 4 -6 6 4 9 11 6 16 -3 5 23 25 57 46 35 20 142 86 238 145 96 59 187 111
202 114 19 5 35 1 55 -13 15 -11 47 -29 71 -41 26 -13 40 -26 36 -33 -4 -7 -3
-8 4 -4 15 9 54 -12 47 -24 -3 -6 0 -7 8 -4 8 3 18 1 22 -5 3 -6 11 -11 17
-11 12 0 2 64 -15 95 -6 11 -12 25 -13 32 -1 6 -8 29 -15 50 -7 21 -12 41 -11
46 1 4 -1 7 -6 7 -4 0 -13 15 -21 33 -7 17 -19 46 -27 64 -8 17 -14 34 -14 37
0 3 -13 33 -29 68 -85 186 -102 227 -106 247 -5 27 -16 32 130 -57z m-3465
-177 c0 -3 -18 4 -40 15 -22 11 -40 23 -40 25 0 3 18 -4 40 -15 22 -11 40 -23
40 -25z m1780 -22 c0 -7 -39 17 -46 28 -3 6 5 3 20 -6 14 -10 26 -19 26 -22z
m80 -50 c0 -7 -39 17 -46 28 -3 6 5 3 20 -6 14 -10 26 -19 26 -22z m3817 -515
c-1 -90 -3 -19 -3 157 0 176 2 249 3 163 2 -86 2 -230 0 -320z m-1452 172 c3
-6 -1 -7 -9 -4 -18 7 -21 14 -7 14 6 0 13 -4 16 -10z m-35 -5 c0 -2 -10 -9
-22 -15 -22 -11 -22 -10 -4 4 21 17 26 19 26 11z m90 -31 c0 -2 -9 0 -20 6
-11 6 -20 13 -20 16 0 2 9 0 20 -6 11 -6 20 -13 20 -16z m-148 -6 c-13 -15
-72 -51 -72 -44 0 5 71 56 79 56 2 0 -1 -6 -7 -12z m291 -77 c48 -29 87 -55
87 -58 0 -3 -10 1 -22 9 -92 58 -149 88 -158 83 -6 -4 -9 -2 -8 4 2 5 -6 17
-17 26 -19 16 -19 17 5 3 14 -8 64 -38 113 -67z m-473 -36 c0 -2 -10 -9 -22
-15 -22 -11 -22 -10 -4 4 21 17 26 19 26 11z m705 -110 l20 -16 -20 10 c-11 5
-29 17 -40 26 l-20 16 20 -10 c11 -5 29 -17 40 -26z m95 -61 c0 -2 -9 0 -20 6
-11 6 -20 13 -20 16 0 2 9 0 20 -6 11 -6 20 -13 20 -16z m-50 -7 c-18 -17 -98
-64 -87 -51 9 10 89 62 97 63 2 1 -2 -5 -10 -12z m977 -69 c-2 -13 -4 -3 -4
22 0 25 2 35 4 23 2 -13 2 -33 0 -45z m-1077 8 c0 -2 -24 -19 -52 -37 -29 -17
-64 -39 -78 -47 -14 -9 -20 -10 -14 -3 10 10 133 89 142 91 1 0 2 -2 2 -4z
m1077 -588 c-1 -101 -2 -19 -2 182 0 201 1 283 2 183 2 -101 2 -265 0 -365z
m-1276 464 c-38 -27 -107 -66 -96 -55 12 13 108 73 115 72 3 0 -6 -8 -19 -17z
m-131 -82 c-24 -19 -40 -25 -40 -15 0 5 51 34 60 34 3 0 -6 -8 -20 -19z
m-1484 -56 c8 3 13 0 11 -7 -1 -7 7 -12 18 -12 26 0 47 -14 40 -26 -4 -5 -3
-9 2 -9 4 0 19 -10 33 -21 17 -14 9 -12 -25 7 -87 49 -135 81 -129 87 4 3 13
-1 21 -9 9 -8 22 -13 29 -10z m-329 -146 c-3 -7 -5 -2 -5 12 0 14 2 19 5 13 2
-7 2 -19 0 -25z m825 -191 c48 -29 64 -44 55 -50 -8 -6 -6 -7 6 -3 10 3 27 0
38 -8 19 -13 16 -16 -43 -54 -35 -22 -126 -80 -203 -129 -77 -49 -150 -95
-162 -102 l-23 -12 0 281 0 280 133 -82 c72 -44 162 -99 199 -121z m-477 103
c-3 -5 -12 -10 -18 -10 -7 0 -6 4 3 10 19 12 23 12 15 0z m1422 -202 c-3 -8
-6 -5 -6 6 -1 11 2 17 5 13 3 -3 4 -12 1 -19z m-6 -50 c-3 -21 -6 -26 -9 -15
-3 17 3 47 11 47 2 0 1 -15 -2 -32z m1456 -920 c-1 -167 -2 -33 -2 297 0 330
1 466 2 303 2 -163 2 -433 0 -600z m-337 688 c0 -2 -22 -18 -50 -35 -27 -17
-50 -29 -50 -26 0 4 90 64 98 65 1 0 2 -2 2 -4z m25 -45 c-2 -9 -4 -270 -4
-581 l-1 -566 -210 -133 c-210 -133 -211 -134 -193 -155 l18 -21 -23 19 c-12
11 -25 17 -28 14 -3 -4 -5 -100 -4 -214 0 -114 -3 -205 -7 -200 -4 4 -8 100
-9 214 l-1 207 -164 107 c-90 58 -222 143 -294 187 -140 87 -209 139 -167 126
43 -13 142 -77 135 -88 -3 -6 -1 -7 5 -3 6 4 53 -20 104 -53 85 -55 95 -59
113 -46 11 8 36 24 55 35 40 23 69 41 84 53 61 47 241 155 250 150 6 -4 59
-37 119 -75 59 -37 121 -75 137 -83 17 -9 28 -20 25 -25 -3 -6 1 -7 9 -4 14 5
16 68 17 548 1 297 0 554 -1 569 -2 33 19 65 31 46 4 -6 5 -19 4 -28z m-185
-55 c0 -2 -7 -7 -16 -10 -8 -3 -12 -2 -9 4 6 10 25 14 25 6z m-70 -41 c0 -2
-10 -9 -22 -15 -22 -11 -22 -10 -4 4 21 17 26 19 26 11z m-2637 -60 c-3 -9 -8
-14 -10 -11 -3 3 -2 9 2 15 9 16 15 13 8 -4z m2844 -7 c-3 -8 -6 -5 -6 6 -1
11 2 17 5 13 3 -3 4 -12 1 -19z m-2766 -25 c13 -16 12 -17 -3 -4 -10 7 -18 15
-18 17 0 8 8 3 21 -13z m2429 13 c0 -4 -112 -75 -215 -136 -87 -51 -16 -1 93
67 125 77 122 75 122 69z m-2385 -46 c-3 -5 -12 -10 -18 -10 -7 0 -6 4 3 10
19 12 23 12 15 0z m6 -113 c-10 -9 -11 -8 -5 6 3 10 9 15 12 12 3 -3 0 -11 -7
-18z m2119 -2 c0 -2 -10 -9 -22 -15 -22 -11 -22 -10 -4 4 21 17 26 19 26 11z
m-65 -41 c-26 -20 -55 -36 -55 -30 0 5 63 46 70 46 3 -1 -4 -8 -15 -16z
m-1385 -29 c0 -14 -2 -25 -4 -25 -2 0 -6 11 -8 25 -3 14 -1 25 3 25 5 0 9 -11
9 -25z m-776 -1 c3 -8 2 -12 -4 -9 -6 3 -10 10 -10 16 0 14 7 11 14 -7z m2080
-21 c-37 -28 -51 -33 -51 -18 0 8 4 12 9 9 12 -7 49 21 40 31 -4 5 -1 5 7 0
11 -7 11 -11 -5 -22z m-1983 -41 c-5 -10 -20 -18 -33 -19 -17 -2 -19 0 -8 7 8
5 17 7 21 4 4 -2 9 3 13 11 3 8 8 15 11 15 3 0 1 -8 -4 -18z m709 9 c0 -6 -4
-13 -10 -16 -5 -3 -10 1 -10 9 0 9 5 16 10 16 6 0 10 -4 10 -9z m1210 -5 c0
-2 -24 -19 -52 -37 -29 -17 -64 -39 -78 -47 -14 -9 -20 -11 -15 -5 9 10 136
93 143 93 1 0 2 -2 2 -4z m-2020 -20 c0 -2 -8 -10 -17 -17 -16 -13 -17 -12 -4
4 13 16 21 21 21 13z m170 -31 c0 -8 -4 -15 -10 -15 -5 0 -7 7 -4 15 4 8 8 15
10 15 2 0 4 -7 4 -15z m637 -13 c9 -15 7 -21 -8 -30 -15 -10 -19 -24 -19 -67
0 -47 2 -54 18 -48 14 5 13 3 -3 -10 -11 -8 -21 -15 -22 -14 -1 1 -3 37 -5 80
-2 42 -1 71 4 65 6 -10 10 -10 17 2 6 9 6 19 -1 27 -6 7 -6 13 -2 13 5 0 14
-8 21 -18z m-792 -20 c-3 -3 -11 0 -18 7 -9 10 -8 11 6 5 10 -3 15 -9 12 -12z
m185 4 c0 -3 -4 -8 -10 -11 -5 -3 -10 -1 -10 4 0 6 5 11 10 11 6 0 10 -2 10
-4z m1640 -31 c0 -2 -13 -11 -30 -20 -38 -19 -40 -11 -2 9 31 17 32 18 32 11z
m-75 -34 c3 -5 2 -12 -3 -15 -5 -3 -9 1 -9 9 0 17 3 19 12 6z m-1652 -18 c-3
-7 -6 -13 -8 -13 -2 0 -5 6 -8 13 -3 8 1 14 8 14 7 0 11 -6 8 -14z m-123 -8
c11 -13 10 -14 -4 -9 -9 3 -16 10 -16 15 0 13 6 11 20 -6z m1742 -7 c-7 -7
-13 -46 -14 -92 l-2 -81 -3 78 c-4 72 5 107 25 107 3 0 1 -5 -6 -12z m-1715
-20 c-3 -8 -6 -5 -6 6 -1 11 2 17 5 13 3 -3 4 -12 1 -19z m6 -31 c18 -12 27
-14 27 -6 0 7 3 9 6 6 4 -3 16 -2 26 4 16 9 24 7 37 -7 15 -17 15 -17 -1 -5
-13 9 -22 10 -38 1 -11 -6 -18 -15 -15 -21 12 -18 -12 -9 -53 21 -23 17 -42
35 -42 42 0 7 5 6 13 -3 6 -9 24 -23 40 -32z m175 5 c4 -35 -5 -25 -12 12 -3
16 -2 25 1 22 4 -4 9 -19 11 -34z m-241 -44 c-2 -13 -4 -5 -4 17 -1 22 1 32 4
23 2 -10 2 -28 0 -40z m0 -65 c-3 -10 -5 -4 -5 12 0 17 2 24 5 18 2 -7 2 -21
0 -30z m1236 -8 c-3 -9 -8 -14 -10 -11 -3 3 -2 9 2 15 9 16 15 13 8 -4z
m-1236 -67 c-2 -13 -4 -5 -4 17 -1 22 1 32 4 23 2 -10 2 -28 0 -40z m1760 20
c-3 -7 -5 -2 -5 12 0 14 2 19 5 13 2 -7 2 -19 0 -25z m0 -205 c-2 -32 -3 -8
-3 52 0 61 1 87 3 58 2 -29 2 -78 0 -110z m-1760 95 c-3 -7 -5 -2 -5 12 0 14
2 19 5 13 2 -7 2 -19 0 -25z m1343 -590 l0 -590 -27 18 c-109 70 -132 88 -126
97 3 6 1 7 -6 3 -14 -9 -158 79 -172 105 -7 13 -6 19 1 19 6 0 8 5 5 10 -3 6
-1 10 5 10 7 0 10 -6 7 -14 -3 -8 1 -22 9 -33 9 -10 13 -13 10 -6 -4 6 0 14 6
16 8 3 6 6 -5 6 -10 1 -15 6 -12 11 4 6 11 8 16 5 5 -3 6 1 3 9 -3 9 -9 14
-12 13 -18 -6 -9 42 18 93 4 9 11 31 15 50 13 62 76 234 88 242 9 6 9 8 -1 8
-9 0 -10 5 -3 19 6 10 7 22 3 26 -4 4 4 2 18 -5 22 -12 24 -12 12 2 -11 13
-10 26 3 70 9 29 22 67 30 83 7 17 23 62 35 100 12 39 26 75 30 80 7 9 12 42
19 147 1 4 8 5 16 2 13 -5 15 -81 15 -596z m1826 567 c-11 -8 -25 -15 -30 -15
-6 1 0 7 14 15 32 19 40 18 16 0z m-3169 -17 c-3 -8 -6 -5 -6 6 -1 11 2 17 5
13 3 -3 4 -12 1 -19z m1273 17 c0 -2 -10 -9 -22 -15 -22 -11 -22 -10 -4 4 21
17 26 19 26 11z m1842 -27 c-6 -7 -25 -22 -44 -32 -39 -23 -32 -13 14 20 38
26 45 29 30 12z m733 -28 c-3 -5 -14 -10 -23 -10 -15 0 -15 2 -2 10 20 13 33
13 25 0z m-465 -5 c0 -2 -10 -9 -22 -15 -22 -11 -22 -10 -4 4 21 17 26 19 26
11z m247 -17 c-3 -8 -6 -5 -6 6 -1 11 2 17 5 13 3 -3 4 -12 1 -19z m-312 -24
c-26 -20 -55 -36 -55 -30 0 5 63 46 70 46 3 -1 -4 -8 -15 -16z m289 1 c-7 -18
-14 -18 -34 -4 -13 9 -12 10 3 5 9 -3 17 -1 17 4 0 6 4 10 10 10 5 0 7 -7 4
-15z m137 2 c-1 -12 -15 -9 -19 4 -3 6 1 10 8 8 6 -3 11 -8 11 -12z m-77 -5
c3 -5 -1 -9 -9 -9 -8 0 -12 4 -9 9 3 4 7 8 9 8 2 0 6 -4 9 -8z m-694 -6 c0 -2
-12 -11 -27 -20 l-28 -17 24 20 c23 21 31 25 31 17z m660 -10 c0 -3 -4 -8 -10
-11 -5 -3 -10 -1 -10 4 0 6 5 11 10 11 6 0 10 -2 10 -4z m-1873 -248 c-1 -46
-3 -11 -3 77 0 88 2 125 3 83 2 -42 2 -114 0 -160z m-1760 155 c-3 -10 -5 -2
-5 17 0 19 2 27 5 18 2 -10 2 -26 0 -35z m3508 38 c3 -5 2 -12 -3 -15 -5 -3
-9 1 -9 9 0 17 3 19 12 6z m40 -21 c-3 -5 -12 -10 -18 -10 -7 0 -6 4 3 10 19
12 23 12 15 0z m-65 -6 c0 -8 -19 -13 -24 -6 -3 5 1 9 9 9 8 0 15 -2 15 -3z
m-131 -33 c-6 -2 -18 4 -27 13 -15 15 -15 15 10 4 15 -7 23 -15 17 -17z
m-2454 1 c-19 -16 -192 -127 -347 -221 -21 -12 -38 -20 -38 -18 0 3 55 39 123
80 67 42 153 96 192 121 64 43 92 58 70 38z m-898 -184 c-2 -35 -3 -7 -3 62 0
69 1 97 3 63 2 -35 2 -91 0 -125z m3331 157 c-3 -3 -9 2 -12 12 -6 14 -5 15 5
6 7 -7 10 -15 7 -18z m202 15 c0 -5 -5 -10 -11 -10 -5 0 -7 5 -4 10 3 6 8 10
11 10 2 0 4 -4 4 -10z m-225 -10 c3 -6 -1 -7 -9 -4 -18 7 -21 14 -7 14 6 0 13
-4 16 -10z m140 -8 c-3 -3 -11 0 -18 7 -9 10 -8 11 6 5 10 -3 15 -9 12 -12z
m-171 -10 c3 -5 -1 -9 -9 -9 -8 0 -12 4 -9 9 3 4 7 8 9 8 2 0 6 -4 9 -8z
m-194 -32 c-9 -5 -9 -9 -1 -14 6 -4 11 -12 11 -19 0 -6 -6 -2 -14 8 -8 11 -12
23 -10 27 3 5 0 8 -5 8 -6 0 -11 5 -11 10 0 7 7 7 21 -1 16 -8 18 -13 9 -19z
m-50 0 c-13 -8 -12 -10 3 -10 10 0 15 -4 12 -10 -3 -5 1 -10 9 -10 22 0 20
-10 -9 -44 -18 -23 -23 -25 -22 -10 1 10 -4 19 -10 20 -7 1 -16 3 -20 4 -5 1
-16 2 -25 1 -10 -1 -18 2 -18 8 0 6 7 7 17 4 10 -4 14 -2 10 4 -7 11 39 52 58
53 6 0 3 -5 -5 -10z m155 -55 c62 -35 58 -31 50 -45 -5 -8 -14 -7 -31 4 -29
20 -34 20 -34 0 0 -9 -5 -12 -12 -8 -8 5 -5 13 10 25 18 14 19 18 6 23 -9 3
-25 -4 -38 -17 -23 -24 -39 -28 -53 -13 -4 5 -3 6 3 3 6 -4 20 0 30 8 10 8 14
15 8 15 -7 0 -14 7 -17 14 -4 11 -1 13 11 9 14 -5 14 -3 -3 18 l-20 24 20 -16
c11 -9 43 -28 70 -44z m80 35 c-3 -5 -12 -10 -18 -10 -7 0 -6 4 3 10 19 12 23
12 15 0z m-330 -41 c-4 -5 -12 -9 -18 -8 -9 0 -8 2 1 6 6 2 9 10 6 15 -4 7 -2
8 5 4 6 -4 9 -12 6 -17z m385 17 c0 -2 -8 -10 -17 -17 -16 -13 -17 -12 -4 4
13 16 21 21 21 13z m-3000 -52 c0 -2 -9 0 -20 6 -11 6 -20 13 -20 16 0 2 9 0
20 -6 11 -6 20 -13 20 -16z m2585 5 c4 -6 14 -8 24 -4 11 4 9 -1 -6 -14 -25
-24 -41 -28 -24 -7 10 11 8 17 -6 25 -10 6 -13 11 -6 11 6 0 15 -5 18 -11z
m95 -4 c-7 -9 -15 -13 -19 -10 -3 3 1 10 9 15 21 14 24 12 10 -5z m80 -25 c0
-5 -2 -10 -4 -10 -3 0 -8 5 -11 10 -3 6 -1 10 4 10 6 0 11 -4 11 -10z m67 -12
c0 -13 -1 -17 -4 -10 -3 6 -11 12 -18 12 -19 0 -26 -27 -10 -40 19 -15 10 -31
-12 -23 -12 5 -14 3 -8 -8 7 -12 6 -12 -11 1 -29 22 -30 24 -13 18 9 -4 22 -2
30 3 8 5 9 9 3 9 -7 0 -11 11 -10 24 0 13 3 23 6 21 3 -2 12 0 20 6 22 13 26
11 27 -13z m-612 -8 c10 -11 14 -20 9 -20 -5 0 -15 9 -22 20 -7 11 -11 20 -9
20 2 0 12 -9 22 -20z m514 -1 c-22 -13 -31 -11 -17 5 7 8 17 12 22 9 4 -3 2
-9 -5 -14z m-124 -8 c-3 -6 -11 -11 -17 -11 -6 0 -6 6 2 15 14 17 26 13 15 -4z
m85 -3 c0 -5 -9 -4 -20 2 -11 6 -20 12 -20 14 0 2 9 2 20 -1 11 -3 20 -9 20
-15z m-2043 -10 c-3 -8 -6 -5 -6 6 -1 11 2 17 5 13 3 -3 4 -12 1 -19z m1832 1
c-19 -12 -29 -11 -29 2 0 5 5 7 10 4 6 -3 10 -1 10 5 0 6 5 8 11 4 8 -4 7 -9
-2 -15z m66 -18 c-6 -5 -25 10 -25 20 0 5 6 4 14 -3 8 -7 12 -15 11 -17z m105
15 c0 -3 -4 -8 -10 -11 -5 -3 -10 -1 -10 4 0 6 5 11 10 11 6 0 10 -2 10 -4z
m45 -9 c12 16 13 15 8 -10 -5 -26 -7 -27 -23 -12 -9 8 -20 12 -24 8 -4 -4 -4
1 0 11 6 17 8 17 16 1 9 -15 11 -15 23 2z m-3018 -189 c-2 -35 -3 -7 -3 62 0
69 1 97 3 63 2 -35 2 -91 0 -125z m2733 169 c0 -7 -9 -13 -21 -13 -19 0 -19 1
-3 13 10 7 19 13 21 13 2 0 3 -6 3 -13z m175 -47 c4 -27 3 -30 -4 -15 -7 14
-10 15 -10 5 -1 -13 -3 -13 -10 -1 -7 12 -10 11 -14 -5 -4 -17 -4 -17 -3 1 1
11 7 19 14 18 6 -2 12 6 12 17 0 14 -5 18 -17 14 -15 -5 -16 -4 -3 5 19 13 28
3 35 -39z m53 25 c-3 -3 -9 2 -12 12 -6 14 -5 15 5 6 7 -7 10 -15 7 -18z
m-328 -11 c0 -2 -9 0 -20 6 -11 6 -20 13 -20 16 0 2 9 0 20 -6 11 -6 20 -13
20 -16z m158 1 c-3 -3 -9 2 -12 12 -6 14 -5 15 5 6 7 -7 10 -15 7 -18z m279 3
c-3 -8 -6 -5 -6 6 -1 11 2 17 5 13 3 -3 4 -12 1 -19z m-384 -19 c3 -15 11 -23
21 -22 10 0 15 -1 12 -5 -3 -3 2 -11 12 -19 15 -12 14 -13 -8 -2 -14 6 -38 21
-54 32 -27 19 -28 21 -11 34 22 15 23 14 28 -18z m83 -4 c-1 -8 -5 -17 -9 -21
-11 -12 3 -23 21 -17 14 4 13 2 -3 -11 -20 -17 -20 -17 5 -11 20 5 22 4 10 -5
-12 -9 -9 -10 15 -6 21 5 26 4 15 -3 -12 -8 -11 -13 5 -31 16 -18 12 -17 -23
6 -23 15 -49 41 -57 56 -7 16 -10 26 -5 23 5 -3 11 -1 15 5 3 5 0 10 -7 10 -9
0 -9 3 2 10 19 12 19 13 16 -5z m-4649 -37 c-3 -8 -6 -5 -6 6 -1 11 2 17 5 13
3 -3 4 -12 1 -19z m4753 -13 c0 -2 -14 -3 -31 -3 -17 1 -25 4 -18 8 10 7 49 2
49 -5z m-1903 -57 c-3 -7 -5 -2 -5 12 0 14 2 19 5 13 2 -7 2 -19 0 -25z
m-2330 -14 c-3 -3 -12 -4 -19 -1 -8 3 -5 6 6 6 11 1 17 -2 13 -5z m2330 -51
c-3 -10 -5 -4 -5 12 0 17 2 24 5 18 2 -7 2 -21 0 -30z m1203 16 l25 -20 -25
12 c-14 7 -28 12 -32 11 -5 -1 -8 3 -8 8 0 15 12 12 40 -11z m-3455 -7 c-3 -3
-11 0 -18 7 -9 10 -8 11 6 5 10 -3 15 -9 12 -12z m3385 -7 c0 -2 -10 -9 -22
-15 -22 -11 -22 -10 -4 4 21 17 26 19 26 11z m-3125 -25 c-3 -5 -14 -10 -23
-9 -14 0 -13 2 3 9 27 11 27 11 20 0z m3069 -15 c-4 -8 -11 -15 -16 -15 -6 0
-5 6 2 15 7 8 14 15 16 15 2 0 1 -7 -2 -15z m-3073 -28 c-10 -9 -11 -8 -5 6 3
10 9 15 12 12 3 -3 0 -11 -7 -18z m1026 -24 c-3 -10 -5 -2 -5 17 0 19 2 27 5
18 2 -10 2 -26 0 -35z m970 -5 c-2 -13 -4 -5 -4 17 -1 22 1 32 4 23 2 -10 2
-28 0 -40z m1043 37 c0 -2 -10 -9 -22 -15 -22 -11 -22 -10 -4 4 21 17 26 19
26 11z m-2880 -28 c0 -1 -11 -2 -24 -2 -14 0 -22 5 -19 12 4 9 10 10 24 2 10
-5 19 -11 19 -12z m47 8 c0 -8 -4 -12 -9 -9 -5 3 -6 10 -3 15 9 13 12 11 12
-6z m67 -4 c3 -5 -2 -15 -12 -22 -15 -12 -16 -12 -5 2 7 9 10 19 6 22 -3 4 -4
7 0 7 3 0 8 -4 11 -9z m-190 -23 c-3 -4 -11 -5 -19 -1 -21 7 -19 12 4 10 11 0
18 -5 15 -9z m-31 -28 c-3 -12 -8 -19 -11 -16 -5 6 5 36 12 36 2 0 2 -9 -1
-20z m974 -22 c-3 -7 -5 -2 -5 12 0 14 2 19 5 13 2 -7 2 -19 0 -25z m970 0
c-3 -7 -5 -2 -5 12 0 14 2 19 5 13 2 -7 2 -19 0 -25z m913 18 c0 -2 -12 -11
-27 -20 l-28 -17 24 20 c23 21 31 25 31 17z m550 -11 c0 -2 -9 -3 -19 -2 -11
0 -18 5 -15 9 4 6 34 0 34 -7z m-3070 -10 c7 -9 8 -15 2 -15 -5 0 -12 7 -16
15 -3 8 -4 15 -2 15 2 0 9 -7 16 -15z m-215 -6 c11 -16 1 -19 -13 -3 -7 8 -8
14 -3 14 5 0 13 -5 16 -11z m160 1 c3 -6 -1 -7 -9 -4 -18 7 -21 14 -7 14 6 0
13 -4 16 -10z m67 -52 c-8 -8 -9 -4 -5 13 4 13 8 18 11 10 2 -7 -1 -18 -6 -23z
m625 10 c-3 -8 -6 -5 -6 6 -1 11 2 17 5 13 3 -3 4 -12 1 -19z m1768 -8 c-7
-11 72 -63 84 -56 4 3 8 -1 8 -9 0 -13 -4 -13 -21 -2 -12 7 -38 24 -59 36 -29
18 -35 26 -25 32 17 11 20 11 13 -1z m-2558 -15 c0 -8 -4 -12 -9 -9 -5 3 -6
10 -3 15 9 13 12 11 12 -6z m123 11 c0 -3 -4 -8 -10 -11 -5 -3 -10 -1 -10 4 0
6 5 11 10 11 6 0 10 -2 10 -4z m667 -28 c-3 -8 -6 -5 -6 6 -1 11 2 17 5 13 3
-3 4 -12 1 -19z m1683 8 c0 -2 -35 -25 -77 -52 -118 -72 -129 -79 -118 -67 9
9 186 122 193 123 1 0 2 -2 2 -4z m255 -86 c0 -7 6 -15 14 -18 9 -3 11 0 6 9
-5 8 -4 11 1 6 5 -5 9 -14 9 -20 0 -7 9 -12 19 -12 11 0 21 -6 23 -12 3 -9 10
-10 22 -3 15 8 18 5 17 -12 0 -12 5 -23 13 -26 9 -3 11 0 6 7 -5 9 -1 9 14 0
14 -9 17 -16 8 -21 -6 -4 -27 3 -47 14 -96 59 -164 109 -166 123 -2 14 2 13
29 -3 18 -10 32 -24 32 -32z m-2527 -15 c-3 -3 -9 2 -12 12 -6 14 -5 15 5 6 7
-7 10 -15 7 -18z m-28 4 c12 -8 10 -9 -9 -4 -17 5 -22 4 -16 -5 5 -9 4 -11 -4
-6 -6 4 -9 12 -6 17 8 12 16 11 35 -2z m840 -19 c-12 -8 -11 -10 5 -11 11 -1
24 -1 28 0 5 1 6 -3 2 -8 -7 -13 24 -31 55 -31 6 0 9 -6 8 -12 -2 -7 4 -12 13
-10 9 1 16 -4 16 -12 0 -12 -5 -13 -21 -4 -23 12 -136 89 -136 92 0 1 10 3 22
3 18 2 20 0 8 -7z m-460 -30 c-8 -5 -19 -10 -25 -10 -5 0 -3 5 5 10 8 5 20 10
25 10 6 0 3 -5 -5 -10z m1690 5 c0 -2 -10 -9 -22 -15 -22 -11 -22 -10 -4 4 21
17 26 19 26 11z m-2025 -15 c-3 -5 -11 -10 -16 -10 -6 0 -7 5 -4 10 3 6 11 10
16 10 6 0 7 -4 4 -10z m1975 -14 c0 -2 -12 -11 -27 -20 l-28 -17 24 20 c23 21
31 25 31 17z m-60 -56 c0 -11 -2 -20 -4 -20 -2 0 -6 9 -9 20 -3 11 -1 20 4 20
5 0 9 -9 9 -20z m-1653 -127 c-3 -10 -5 -4 -5 12 0 17 2 24 5 18 2 -7 2 -21 0
-30z m103 -63 c0 -5 -2 -10 -4 -10 -3 0 -8 5 -11 10 -3 6 -1 10 4 10 6 0 11
-4 11 -10z m1695 -42 c5 -4 6 -8 2 -8 -9 0 -87 51 -87 57 0 5 69 -35 85 -49z
m91 -59 c3 -5 -11 0 -30 12 -20 12 -39 25 -42 30 -3 5 11 0 30 -12 20 -12 39
-25 42 -30z"/>
<path d="M5170 8525 c0 -14 4 -25 9 -25 4 0 6 11 3 25 -2 14 -6 25 -8 25 -2 0
-4 -11 -4 -25z"/>
<path d="M5235 8490 c-3 -5 -1 -10 4 -10 6 0 11 5 11 10 0 6 -2 10 -4 10 -3 0
-8 -4 -11 -10z"/>
<path d="M5172 8470 c0 -14 2 -19 5 -12 2 6 2 18 0 25 -3 6 -5 1 -5 -13z"/>
<path d="M5236 8462 c-7 -12 7 -27 29 -30 18 -2 18 -1 -3 11 -12 7 -19 16 -16
20 4 4 5 7 1 7 -3 0 -8 -4 -11 -8z"/>
<path d="M5324 8462 c4 -7 1 -12 -8 -12 -8 0 -18 -6 -22 -12 -4 -7 -4 -10 1
-6 4 4 16 3 26 -3 13 -7 25 -6 37 1 14 9 13 10 -7 4 -19 -5 -23 -3 -18 10 3 8
1 18 -5 22 -7 4 -8 3 -4 -4z"/>
<path d="M5179 8431 c11 -7 11 -9 0 -13 -8 -3 2 -5 21 -6 l35 -1 -25 14 c-27
15 -54 20 -31 6z"/>
<path d="M5279 8411 c9 -6 10 -11 2 -15 -6 -4 -11 -12 -11 -19 0 -6 6 -3 13 8
9 11 19 15 28 11 8 -4 5 0 -5 8 -11 9 -25 16 -30 16 -6 0 -5 -4 3 -9z"/>
<path d="M5345 8400 c-3 -6 1 -7 9 -4 18 7 21 14 7 14 -6 0 -13 -4 -16 -10z"/>
<path d="M5370 8379 c0 -5 5 -7 10 -4 6 3 10 8 10 11 0 2 -4 4 -10 4 -5 0 -10
-5 -10 -11z"/>
<path d="M5421 8374 c0 -11 3 -14 6 -6 3 7 2 16 -1 19 -3 4 -6 -2 -5 -13z"/>
<path d="M5178 8373 c6 -2 12 -11 12 -19 0 -17 10 -18 30 -3 13 9 13 10 -2 6
-9 -3 -19 1 -22 9 -3 8 -11 14 -18 13 -10 0 -10 -2 0 -6z"/>
<path d="M5316 8368 c3 -5 10 -6 15 -3 13 9 11 12 -6 12 -8 0 -12 -4 -9 -9z"/>
<path d="M5290 8363 c0 -15 18 -35 23 -27 3 5 -1 15 -9 22 -8 7 -14 9 -14 5z"/>
<path d="M5395 8350 c2 -27 10 -33 12 -10 1 11 -2 22 -6 24 -4 3 -7 -4 -6 -14z"/>
<path d="M5435 8349 l-20 -21 28 13 c15 7 27 16 27 21 0 13 -14 8 -35 -13z"/>
<path d="M5170 8329 c0 -11 4 -18 10 -14 5 3 7 12 3 20 -7 21 -13 19 -13 -6z"/>
<path d="M5454 8318 l-19 -21 28 18 c28 18 33 25 19 25 -5 0 -17 -10 -28 -22z"/>
<path d="M5507 8329 c7 -7 15 -10 18 -7 3 3 -2 9 -12 12 -14 6 -15 5 -6 -5z"/>
<path d="M5210 8306 c0 -2 8 -10 18 -17 15 -13 16 -12 3 4 -13 16 -21 21 -21
13z"/>
<path d="M5385 8300 c3 -5 8 -10 11 -10 2 0 4 5 4 10 0 6 -5 10 -11 10 -5 0
-7 -4 -4 -10z"/>
<path d="M5482 8290 c0 -14 2 -19 5 -12 2 6 2 18 0 25 -3 6 -5 1 -5 -13z"/>
<path d="M5177 8279 c4 -16 8 -17 14 -7 13 19 11 28 -5 28 -9 0 -12 -7 -9 -21z"/>
<path d="M5257 8285 c-6 -15 10 -32 20 -21 4 3 1 6 -5 6 -6 0 -9 7 -6 15 4 8
4 15 1 15 -3 0 -7 -7 -10 -15z"/>
<path d="M5317 8280 c3 -11 9 -20 15 -20 5 0 4 9 -2 20 -6 11 -12 20 -14 20
-2 0 -2 -9 1 -20z"/>
<path d="M5540 8290 c-9 -6 -10 -10 -3 -10 6 0 15 5 18 10 8 12 4 12 -15 0z"/>
<path d="M5435 8281 c-3 -6 3 -9 14 -8 11 0 17 5 15 9 -7 11 -22 10 -29 -1z"/>
<path d="M5240 8246 c0 -8 4 -17 9 -20 5 -4 7 3 4 14 -6 23 -13 26 -13 6z"/>
<path d="M5483 8241 c-2 -22 12 -37 21 -23 3 5 0 17 -7 26 -12 16 -13 16 -14
-3z"/>
<path d="M5587 8244 c-11 -11 13 -44 31 -43 16 1 16 2 0 6 -16 4 -22 15 -19
36 1 9 -4 9 -12 1z"/>
<path d="M5275 8230 c-3 -5 -1 -10 4 -10 6 0 11 5 11 10 0 6 -2 10 -4 10 -3 0
-8 -4 -11 -10z"/>
<path d="M5680 8230 c0 -5 5 -10 11 -10 5 0 7 5 4 10 -3 6 -8 10 -11 10 -2 0
-4 -4 -4 -10z"/>
<path d="M5423 8188 c0 -13 1 -17 4 -10 3 6 10 9 16 5 7 -4 6 1 -2 10 -17 21
-17 21 -18 -5z"/>
<path d="M5210 8200 c-8 -26 -7 -41 2 -32 6 6 8 16 5 24 -3 7 -6 11 -7 8z"/>
<path d="M5255 8189 c-4 -6 -5 -12 -2 -15 2 -3 7 2 10 11 7 17 1 20 -8 4z"/>
<path d="M5469 8183 c-13 -16 -12 -17 4 -4 9 7 17 15 17 17 0 8 -8 3 -21 -13z"/>
<path d="M5511 8184 c0 -11 3 -14 6 -6 3 7 2 16 -1 19 -3 4 -6 -2 -5 -13z"/>
<path d="M5715 8179 c-4 -6 -5 -12 -2 -15 2 -3 7 2 10 11 7 17 1 20 -8 4z"/>
<path d="M5225 8161 c-3 -5 -2 -12 3 -15 5 -3 9 1 9 9 0 17 -3 19 -12 6z"/>
<path d="M5395 8161 c-3 -5 -2 -12 3 -15 5 -3 9 1 9 9 0 17 -3 19 -12 6z"/>
<path d="M5451 8153 c7 -12 15 -20 18 -17 3 2 -3 12 -13 22 -17 16 -18 16 -5
-5z"/>
<path d="M5525 8160 c-3 -6 1 -7 9 -4 18 7 21 14 7 14 -6 0 -13 -4 -16 -10z"/>
<path d="M5863 8155 c0 -8 3 -12 7 -10 4 2 16 -2 26 -10 10 -8 24 -14 29 -14
10 0 -17 24 -46 39 -11 6 -16 5 -16 -5z"/>
<path d="M5267 8122 c10 -7 29 -19 43 -27 24 -12 25 -12 25 16 1 16 -3 29 -8
29 -4 0 -7 -6 -5 -14 3 -16 -4 -19 -27 -10 -8 3 -13 10 -10 14 3 5 -4 8 -15 7
-20 -1 -20 -2 -3 -15z"/>
<path d="M5550 8130 c0 -5 7 -7 15 -4 8 4 15 8 15 10 0 2 -7 4 -15 4 -8 0 -15
-4 -15 -10z"/>
<path d="M5460 8109 c0 -5 5 -7 10 -4 6 3 10 8 10 11 0 2 -4 4 -10 4 -5 0 -10
-5 -10 -11z"/>
<path d="M5955 8105 c22 -18 86 -53 70 -38 -5 6 -28 20 -50 32 -22 13 -31 15
-20 6z"/>
<path d="M5416 8084 c-23 -23 -20 -30 4 -9 11 10 20 20 20 22 0 7 -9 2 -24
-13z"/>
<path d="M5581 8084 c0 -11 3 -14 6 -6 3 7 2 16 -1 19 -3 4 -6 -2 -5 -13z"/>
<path d="M5610 8086 c7 -7 13 -7 20 0 6 6 3 10 -10 10 -13 0 -16 -4 -10 -10z"/>
<path d="M5521 8074 c0 -11 3 -14 6 -6 3 7 2 16 -1 19 -3 4 -6 -2 -5 -13z"/>
<path d="M5710 8081 c0 -6 4 -13 10 -16 6 -3 7 1 4 9 -7 18 -14 21 -14 7z"/>
<path d="M5355 8072 c6 -5 46 -33 90 -61 52 -33 83 -47 89 -41 7 7 6 14 -3 23
-10 10 -11 8 -5 -7 6 -15 4 -17 -7 -11 -52 31 -69 48 -69 73 0 20 -3 23 -9 12
-6 -8 -7 -18 -5 -22 9 -13 -7 -9 -34 10 -38 27 -59 37 -47 24z"/>
<path d="M5545 8060 c-3 -5 -1 -10 4 -10 6 0 11 5 11 10 0 6 -2 10 -4 10 -3 0
-8 -4 -11 -10z"/>
<path d="M5495 8050 c-9 -15 4 -30 23 -29 15 1 14 2 -1 6 -11 3 -16 11 -13 19
6 16 0 19 -9 4z"/>
<path d="M6043 8053 c4 -6 28 -24 55 -39 26 -15 49 -30 52 -34 3 -4 10 -9 16
-11 39 -14 192 -115 187 -122 -3 -6 -1 -7 5 -3 18 11 37 -4 21 -16 -11 -8 -10
-9 4 -4 18 6 170 -81 163 -93 -3 -4 4 -7 15 -7 10 0 19 1 19 2 0 3 -168 107
-330 206 -85 52 -168 103 -185 114 -16 10 -26 14 -22 7z"/>
<path d="M5790 8046 c0 -2 8 -10 18 -17 15 -13 16 -12 3 4 -13 16 -21 21 -21
13z"/>
<path d="M5875 8030 c-3 -5 -1 -10 4 -10 6 0 11 5 11 10 0 6 -2 10 -4 10 -3 0
-8 -4 -11 -10z"/>
<path d="M5690 8005 c-11 -13 -11 -18 0 -28 10 -9 11 -9 6 1 -4 7 -2 19 4 27
7 8 10 15 7 15 -2 0 -10 -7 -17 -15z"/>
<path d="M6080 8001 c0 -10 19 -25 25 -20 1 2 -3 10 -11 17 -8 7 -14 8 -14 3z"/>
<path d="M5720 7992 c0 -5 7 -15 15 -22 8 -7 15 -9 15 -6 0 4 -7 14 -15 22 -8
9 -15 11 -15 6z"/>
<path d="M5560 7976 c0 -2 7 -9 15 -16 13 -11 14 -10 9 4 -5 14 -24 23 -24 12z"/>
<path d="M5540 7957 c0 -3 24 -19 53 -37 28 -17 42 -22 29 -11 -13 11 -18 22
-12 26 5 3 10 11 10 18 0 6 -6 3 -13 -7 -13 -18 -15 -18 -40 -1 -15 9 -27 15
-27 12z"/>
<path d="M6013 7945 c-3 -9 -3 -18 -1 -21 3 -3 8 4 11 16 6 23 -1 27 -10 5z"/>
<path d="M5691 7902 c3 -21 -2 -32 -13 -27 -7 4 -4 -1 7 -10 11 -9 34 -24 50
-32 28 -15 29 -15 16 0 -7 10 -20 17 -28 17 -18 0 -29 30 -14 40 10 5 9 9 -3
13 -9 4 -15 3 -15 -1z"/>
<path d="M6195 7880 c-3 -5 -1 -10 4 -10 6 0 11 5 11 10 0 6 -2 10 -4 10 -3 0
-8 -4 -11 -10z"/>
<path d="M5972 7835 c0 -16 2 -22 5 -12 2 9 2 23 0 30 -3 6 -5 -1 -5 -18z"/>
<path d="M6297 7845 c-4 -8 -3 -16 1 -19 4 -3 9 4 9 15 2 23 -3 25 -10 4z"/>
<path d="M6242 7824 c9 -9 21 -15 27 -13 6 2 -2 10 -17 17 -25 11 -25 11 -10
-4z"/>
<path d="M5770 7817 c0 -3 12 -12 26 -22 15 -9 23 -12 20 -6 -7 11 -46 35 -46
28z"/>
<path d="M6187 7790 c3 -11 7 -20 9 -20 2 0 4 9 4 20 0 11 -4 20 -9 20 -5 0
-7 -9 -4 -20z"/>
<path d="M5911 7781 c-8 -5 -9 -11 -3 -15 5 -3 12 1 16 9 6 17 6 18 -13 6z"/>
<path d="M5830 7775 c0 -2 10 -10 23 -16 20 -11 21 -11 8 4 -13 16 -31 23 -31
12z"/>
<path d="M6285 7771 c-3 -6 5 -15 17 -21 21 -10 21 -10 6 3 -10 8 -15 17 -11
20 3 4 4 7 0 7 -3 0 -8 -4 -12 -9z"/>
<path d="M5880 7747 c0 -3 24 -20 53 -38 28 -17 61 -38 73 -45 18 -12 21 -12
21 1 0 8 -5 11 -10 8 -6 -3 -16 2 -23 11 -7 10 -15 17 -18 17 -17 -2 -17 0 -5
17 11 14 11 15 -1 5 -19 -18 -35 -16 -21 1 8 10 9 16 1 21 -5 3 -13 -1 -16 -9
-5 -14 -8 -14 -30 1 -13 8 -24 13 -24 10z"/>
<path d="M6620 7696 c0 -3 14 -12 30 -21 17 -9 30 -13 30 -11 0 3 -13 12 -30
21 -16 9 -30 13 -30 11z"/>
<path d="M6097 7649 c7 -7 15 -10 18 -7 3 3 -2 9 -12 12 -14 6 -15 5 -6 -5z"/>
<path d="M6720 7636 c0 -3 9 -10 20 -16 11 -6 20 -8 20 -6 0 3 -9 10 -20 16
-11 6 -20 8 -20 6z"/>
<path d="M6560 7616 c0 -2 7 -7 16 -10 8 -3 12 -2 9 4 -6 10 -25 14 -25 6z"/>
<path d="M6785 7595 c11 -9 29 -21 40 -26 l20 -10 -20 16 c-11 9 -29 21 -40
26 l-20 10 20 -16z"/>
<path d="M6155 7575 c22 -18 86 -53 70 -38 -5 6 -28 20 -50 32 -22 13 -31 15
-20 6z"/>
<path d="M6865 7545 c11 -9 29 -21 40 -26 l20 -10 -20 16 c-11 9 -29 21 -40
26 l-20 10 20 -16z"/>
<path d="M6240 7525 c0 -4 25 -21 113 -74 20 -12 37 -20 37 -18 0 3 -34 26
-75 51 -41 25 -75 43 -75 41z"/>
<path d="M6945 7495 c11 -9 29 -21 40 -26 l20 -10 -20 16 c-11 9 -29 21 -40
26 l-20 10 20 -16z"/>
<path d="M7010 7456 c0 -3 9 -10 20 -16 11 -6 20 -8 20 -6 0 3 -9 10 -20 16
-11 6 -20 8 -20 6z"/>
<path d="M6406 7431 c-6 -9 52 -51 70 -51 5 0 -8 10 -29 23 -21 13 -35 26 -31
30 4 4 5 7 1 7 -3 0 -8 -4 -11 -9z"/>
<path d="M7090 7406 c0 -3 9 -10 20 -16 11 -6 20 -8 20 -6 0 3 -9 10 -20 16
-11 6 -20 8 -20 6z"/>
<path d="M6500 7360 c35 -24 54 -31 30 -11 -14 11 -29 21 -35 21 -5 0 -3 -5 5
-10z"/>
<path d="M7200 7336 c0 -3 14 -12 30 -21 17 -9 30 -13 30 -11 0 3 -13 12 -30
21 -16 9 -30 13 -30 11z"/>
<path d="M6590 7308 c17 -18 110 -72 110 -65 0 3 -15 14 -33 25 -19 11 -47 28
-63 37 -21 13 -25 14 -14 3z"/>
<path d="M6720 7291 c0 -6 4 -13 10 -16 6 -3 7 1 4 9 -7 18 -14 21 -14 7z"/>
<path d="M7350 7247 c18 -17 110 -71 110 -64 0 3 -28 21 -62 42 -35 20 -56 30
-48 22z"/>
<path d="M6740 7216 c0 -2 7 -7 16 -10 8 -3 12 -2 9 4 -6 10 -25 14 -25 6z"/>
<path d="M7487 7164 c11 -11 24 -28 26 -39 5 -16 5 -15 4 4 -1 13 -13 30 -27
39 l-25 14 22 -18z"/>
<path d="M6820 7166 c0 -3 9 -10 20 -16 11 -6 20 -8 20 -6 0 3 -9 10 -20 16
-11 6 -20 8 -20 6z"/>
<path d="M7511 7034 c0 -11 3 -14 6 -6 3 7 2 16 -1 19 -3 4 -6 -2 -5 -13z"/>
<path d="M7091 6997 c2 -1 13 -9 24 -17 19 -14 19 -14 6 3 -7 9 -18 17 -24 17
-6 0 -8 -1 -6 -3z"/>
<path d="M7511 6964 c0 -11 3 -14 6 -6 3 7 2 16 -1 19 -3 4 -6 -2 -5 -13z"/>
<path d="M7512 6920 c0 -14 2 -19 5 -12 2 6 2 18 0 25 -3 6 -5 1 -5 -13z"/>
<path d="M7511 6874 c0 -11 3 -14 6 -6 3 7 2 16 -1 19 -3 4 -6 -2 -5 -13z"/>
<path d="M7212 6850 c0 -14 2 -19 5 -12 2 6 2 18 0 25 -3 6 -5 1 -5 -13z"/>
<path d="M7213 6785 c0 -22 2 -30 4 -17 2 12 2 30 0 40 -3 9 -5 -1 -4 -23z"/>
<path d="M7512 6800 c0 -14 2 -19 5 -12 2 6 2 18 0 25 -3 6 -5 1 -5 -13z"/>
<path d="M7213 6670 c0 -25 2 -35 4 -22 2 12 2 32 0 45 -2 12 -4 2 -4 -23z"/>
<path d="M7211 6604 c0 -11 3 -14 6 -6 3 7 2 16 -1 19 -3 4 -6 -2 -5 -13z"/>
<path d="M7211 6524 c0 -11 3 -14 6 -6 3 7 2 16 -1 19 -3 4 -6 -2 -5 -13z"/>
<path d="M7212 6408 l-2 -97 33 -16 c28 -14 30 -14 13 0 -11 8 -23 15 -28 15
-4 0 -9 44 -11 98 l-3 97 -2 -97z"/>
<path d="M7280 6276 c0 -3 9 -10 20 -16 11 -6 20 -8 20 -6 0 3 -9 10 -20 16
-11 6 -20 8 -20 6z"/>
<path d="M7430 6186 c0 -3 9 -10 20 -16 11 -6 20 -8 20 -6 0 3 -9 10 -20 16
-11 6 -20 8 -20 6z"/>
<path d="M5025 8094 c-79 -51 -111 -79 -50 -44 69 41 140 90 130 90 -6 0 -41
-21 -80 -46z"/>
<path d="M4893 8010 c-34 -20 -47 -38 -15 -21 23 13 58 40 52 41 -3 0 -20 -9
-37 -20z"/>
<path d="M4603 7822 c-23 -15 -42 -30 -43 -35 0 -6 48 21 89 50 2 2 2 5 0 7
-2 3 -23 -7 -46 -22z"/>
<path d="M4412 7703 c-40 -24 -69 -49 -66 -55 4 -5 16 -1 29 12 12 11 46 36
76 55 30 19 50 34 44 34 -5 -1 -43 -21 -83 -46z"/>
<path d="M4304 7634 c-18 -14 -18 -15 4 -4 12 6 22 13 22 15 0 8 -5 6 -26 -11z"/>
<path d="M4883 7000 c0 -25 2 -35 4 -22 2 12 2 32 0 45 -2 12 -4 2 -4 -23z"/>
<path d="M4882 6925 c0 -16 2 -22 5 -12 2 9 2 23 0 30 -3 6 -5 -1 -5 -18z"/>
<path d="M4882 6870 c0 -14 2 -19 5 -12 2 6 2 18 0 25 -3 6 -5 1 -5 -13z"/>
<path d="M2949 7171 c-52 -32 -118 -72 -146 -91 l-53 -33 74 -141 c97 -186
357 -698 771 -1521 186 -368 338 -671 339 -672 0 -1 0 328 -1 730 -2 402 -6
734 -10 738 -9 9 -358 233 -418 269 -65 38 -123 89 -131 113 -4 12 -11 25 -16
28 -5 3 -10 16 -11 27 -1 12 -5 22 -9 22 -4 0 -8 5 -8 10 0 6 -61 132 -135
281 -77 153 -129 269 -120 265 22 -8 18 0 -9 17 -23 15 -28 13 -117 -42z m566
-902 c9 -17 15 -33 13 -35 -3 -2 -12 12 -21 31 -21 43 -13 47 8 4z m63 -134
c-3 -3 -9 2 -12 12 -6 14 -5 15 5 6 7 -7 10 -15 7 -18z"/>
<path d="M3190 7127 c0 -3 12 -12 26 -22 15 -9 23 -12 20 -6 -7 11 -46 35 -46
28z"/>
<path d="M3660 6826 c0 -3 9 -10 20 -16 11 -6 20 -8 20 -6 0 3 -9 10 -20 16
-11 6 -20 8 -20 6z"/>
<path d="M3870 6696 c0 -3 20 -19 45 -36 25 -17 45 -29 45 -26 0 3 -20 19 -45
36 -25 17 -45 29 -45 26z"/>
<path d="M6003 7245 c0 -22 2 -30 4 -17 2 12 2 30 0 40 -3 9 -5 -1 -4 -23z"/>
<path d="M6001 7154 c0 -11 3 -14 6 -6 3 7 2 16 -1 19 -3 4 -6 -2 -5 -13z"/>
<path d="M6001 7114 c0 -11 3 -14 6 -6 3 7 2 16 -1 19 -3 4 -6 -2 -5 -13z"/>
<path d="M5508 7058 c-9 -5 -7 -8 7 -8 19 -1 19 -1 1 -11 -14 -9 -21 -8 -28 2
-7 11 -8 10 -6 -5 2 -14 -33 -40 -160 -116 -90 -54 -168 -102 -173 -107 -10
-10 119 -97 338 -228 l113 -67 55 31 c67 38 351 227 359 239 2 4 0 14 -5 22
-8 12 -9 11 -7 -5 2 -11 -1 -19 -7 -18 -19 4 -280 165 -280 173 0 5 -4 12 -9
17 -5 5 -6 3 -2 -4 9 -16 1 -16 -25 -2 -11 5 -16 15 -13 21 4 7 3 8 -4 4 -16
-10 -54 12 -46 26 4 7 3 8 -4 4 -13 -8 -74 23 -67 34 6 9 -22 8 -37 -2z"/>
<path d="M6001 7054 c0 -11 3 -14 6 -6 3 7 2 16 -1 19 -3 4 -6 -2 -5 -13z"/>
<path d="M5444 7024 c-18 -14 -18 -15 4 -4 12 6 22 13 22 15 0 8 -5 6 -26 -11z"/>
<path d="M5355 6966 c-11 -6 -29 -16 -40 -23 -11 -6 -17 -14 -14 -17 2 -3 25
8 49 24 43 29 47 41 5 16z"/>
<path d="M5270 6910 c-9 -6 -10 -10 -3 -10 6 0 15 5 18 10 8 12 4 12 -15 0z"/>
<path d="M5190 6865 c-19 -13 -41 -24 -47 -24 -7 -1 -13 -5 -13 -9 0 -5 -16
-15 -35 -22 -48 -19 -71 -44 -26 -29 17 6 31 15 31 20 0 5 4 9 10 9 11 0 120
68 120 75 0 7 -1 6 -40 -20z"/>
<path d="M5345 6530 c-3 -6 1 -7 9 -4 18 7 21 14 7 14 -6 0 -13 -4 -16 -10z"/>
<path d="M5559 6503 c-13 -16 -12 -17 4 -4 9 7 17 15 17 17 0 8 -8 3 -21 -13z"/>
<path d="M5438 6498 c5 -5 16 -8 23 -6 8 3 3 7 -10 11 -17 4 -21 3 -13 -5z"/>
<path d="M5515 6480 c-3 -6 1 -7 9 -4 18 7 21 14 7 14 -6 0 -13 -4 -16 -10z"/>
<path d="M5413 6420 c-34 -20 -47 -38 -15 -21 23 13 58 40 52 41 -3 0 -20 -9
-37 -20z"/>
<path d="M5204 6284 c-18 -14 -18 -15 4 -4 12 6 22 13 22 15 0 8 -5 6 -26 -11z"/>
<path d="M5160 6260 c-9 -6 -10 -10 -3 -10 6 0 15 5 18 10 8 12 4 12 -15 0z"/>
<path d="M4961 5697 c2 -1 13 -9 24 -17 19 -14 19 -14 6 3 -7 9 -18 17 -24 17
-6 0 -8 -1 -6 -3z"/>
<path d="M5611 5674 c0 -11 3 -14 6 -6 3 7 2 16 -1 19 -3 4 -6 -2 -5 -13z"/>
<path d="M5166 5572 c-3 -5 1 -9 9 -9 8 0 12 4 9 9 -3 4 -7 8 -9 8 -2 0 -6 -4
-9 -8z"/>
<path d="M5190 5550 c-12 -8 -10 -10 8 -10 12 0 22 -4 22 -10 0 -5 -8 -7 -17
-4 -14 4 -15 3 -5 -4 10 -7 4 -15 -25 -32 -21 -13 -43 -23 -50 -23 -7 0 -10
-3 -8 -7 2 -4 -14 -17 -35 -29 -42 -23 -57 -41 -17 -20 75 40 190 123 177 127
-8 3 -20 8 -25 13 -6 4 -17 4 -25 -1z"/>
<path d="M4927 5339 c-9 -5 -22 -7 -29 -3 -7 4 -8 3 -4 -4 9 -16 18 -15 42 3
22 17 17 19 -9 4z"/>
<path d="M5480 5129 c0 -5 5 -7 10 -4 6 3 10 8 10 11 0 2 -4 4 -10 4 -5 0 -10
-5 -10 -11z"/>
<path d="M5595 5115 c11 -9 19 -20 18 -25 -2 -5 4 -7 12 -4 21 8 19 11 -17 29
-31 15 -31 15 -13 0z"/>
<path d="M5520 5096 c0 -2 8 -10 18 -17 15 -13 16 -12 3 4 -13 16 -21 21 -21
13z"/>
<path d="M5650 5086 c0 -3 9 -10 20 -16 11 -6 20 -8 20 -6 0 3 -9 10 -20 16
-11 6 -20 8 -20 6z"/>
<path d="M5496 5047 c3 -8 11 -14 19 -14 20 0 19 4 -5 17 -15 8 -18 8 -14 -3z"/>
<path d="M5733 5025 c0 -7 6 -11 14 -8 7 3 13 6 13 8 0 2 -6 5 -13 8 -8 3 -14
-1 -14 -8z"/>
<path d="M5500 4975 c0 -7 30 -13 34 -7 3 4 -4 9 -15 9 -10 1 -19 0 -19 -2z"/>
<path d="M4807 4789 c7 -7 15 -10 18 -7 3 3 -2 9 -12 12 -14 6 -15 5 -6 -5z"/>
<path d="M5135 4620 c3 -5 8 -10 11 -10 2 0 4 5 4 10 0 6 -5 10 -11 10 -5 0
-7 -4 -4 -10z"/>
<path d="M5015 6280 c3 -5 11 -10 16 -10 6 0 7 5 4 10 -3 6 -11 10 -16 10 -6
0 -7 -4 -4 -10z"/>
<path d="M5250 5956 c0 -2 8 -10 18 -17 15 -13 16 -12 3 4 -13 16 -21 21 -21
13z"/>
<path d="M5455 5860 c-3 -6 1 -7 9 -4 18 7 21 14 7 14 -6 0 -13 -4 -16 -10z"/>
<path d="M5300 5840 c0 -5 5 -10 11 -10 5 0 7 5 4 10 -3 6 -8 10 -11 10 -2 0
-4 -4 -4 -10z"/>
<path d="M5305 5770 c-3 -5 -2 -10 4 -10 5 0 13 5 16 10 3 6 2 10 -4 10 -5 0
-13 -4 -16 -10z"/>
<path d="M5265 5740 c-3 -6 1 -7 9 -4 18 7 21 14 7 14 -6 0 -13 -4 -16 -10z"/>
<path d="M7160 4560 c-6 -11 -8 -20 -6 -20 3 0 10 9 16 20 6 11 8 20 6 20 -3
0 -10 -9 -16 -20z"/>
<path d="M7205 4550 c4 -6 11 -8 16 -5 14 9 11 15 -7 15 -8 0 -12 -5 -9 -10z"/>
<path d="M7125 4537 c-5 -7 -17 -21 -25 -32 -14 -18 -13 -19 1 -8 29 23 30 0
2 -24 l-28 -24 30 18 c36 21 49 34 52 50 2 7 -4 10 -12 7 -11 -5 -13 -2 -9 10
7 19 3 20 -11 3z"/>
<path d="M7290 4525 c0 -8 4 -15 10 -15 5 0 7 7 4 15 -4 8 -8 15 -10 15 -2 0
-4 -7 -4 -15z"/>
<path d="M7229 4483 c-13 -16 -12 -17 4 -4 16 13 21 21 13 21 -2 0 -10 -8 -17
-17z"/>
<path d="M7026 4474 c-6 -15 -4 -15 11 -3 10 7 20 15 22 16 2 2 -3 3 -11 3 -9
0 -19 -7 -22 -16z"/>
<path d="M7230 4464 c-17 -9 -20 -14 -9 -14 9 0 22 7 29 15 15 18 13 18 -20
-1z"/>
<path d="M7255 4451 c-3 -5 -2 -12 3 -15 5 -3 9 1 9 9 0 17 -3 19 -12 6z"/>
<path d="M7020 4440 c0 -5 5 -10 11 -10 5 0 7 5 4 10 -3 6 -8 10 -11 10 -2 0
-4 -4 -4 -10z"/>
<path d="M7371 4434 c0 -11 3 -14 6 -6 3 7 2 16 -1 19 -3 4 -6 -2 -5 -13z"/>
<path d="M7130 4436 c0 -2 7 -7 16 -10 8 -3 12 -2 9 4 -6 10 -25 14 -25 6z"/>
<path d="M7216 4431 c-3 -5 1 -11 9 -14 9 -4 12 -1 8 9 -6 16 -10 17 -17 5z"/>
<path d="M7445 4431 c-3 -5 0 -13 6 -17 7 -4 9 -3 5 4 -3 5 0 13 6 15 9 4 10
6 1 6 -6 1 -14 -3 -18 -8z"/>
<path d="M6939 4413 c-13 -16 -12 -17 4 -4 16 13 21 21 13 21 -2 0 -10 -8 -17
-17z"/>
<path d="M6986 4396 c4 -11 1 -16 -12 -17 -11 0 -14 -3 -7 -5 7 -3 19 -1 28 4
15 8 15 10 0 22 -13 11 -15 10 -9 -4z"/>
<path d="M6710 4396 c0 -3 9 -10 20 -16 11 -6 20 -8 20 -6 0 3 -9 10 -20 16
-11 6 -20 8 -20 6z"/>
<path d="M7050 4396 c0 -2 8 -10 18 -17 15 -13 16 -12 3 4 -13 16 -21 21 -21
13z"/>
<path d="M7333 4395 c4 -5 -3 -19 -15 -32 -13 -14 -16 -22 -8 -18 25 9 42 43
27 51 -6 4 -9 3 -4 -1z"/>
<path d="M7157 4366 c-4 -10 -1 -13 8 -9 8 3 12 9 9 14 -7 12 -11 11 -17 -5z"/>
<path d="M7240 4370 c0 -5 5 -10 11 -10 5 0 7 5 4 10 -3 6 -8 10 -11 10 -2 0
-4 -4 -4 -10z"/>
<path d="M7355 4369 c-4 -6 -5 -12 -2 -15 2 -3 7 2 10 11 7 17 1 20 -8 4z"/>
<path d="M7405 4360 c-3 -6 1 -7 9 -4 18 7 21 14 7 14 -6 0 -13 -4 -16 -10z"/>
<path d="M6832 4353 c-8 -3 -5 -11 12 -24 31 -24 48 -24 19 0 -12 10 -19 21
-16 25 7 7 4 7 -15 -1z"/>
<path d="M7020 4340 c-9 -6 -10 -10 -3 -10 6 0 15 5 18 10 8 12 4 12 -15 0z"/>
<path d="M7067 4335 c-8 -8 -17 -12 -19 -10 -3 3 -5 -2 -5 -10 0 -10 4 -12 13
-4 8 7 13 6 16 -3 3 -9 6 -9 12 0 4 7 2 12 -5 12 -8 0 -8 4 1 15 16 19 6 20
-13 0z"/>
<path d="M7244 4333 c-10 -7 -13 -13 -7 -13 7 0 15 5 18 10 4 6 10 8 15 5 5
-3 11 -2 14 3 8 13 -19 10 -40 -5z"/>
<path d="M7190 4336 c0 -2 7 -7 16 -10 8 -3 12 -2 9 4 -6 10 -25 14 -25 6z"/>
<path d="M7346 4325 c-11 -8 -15 -15 -9 -15 6 0 16 7 23 15 16 19 11 19 -14 0z"/>
<path d="M6988 4293 c7 -3 16 -2 19 1 4 3 -2 6 -13 5 -11 0 -14 -3 -6 -6z"/>
<path d="M7164 4284 c-18 -14 -18 -15 4 -4 12 6 22 13 22 15 0 8 -5 6 -26 -11z"/>
<path d="M7288 4293 c-10 -2 -18 -9 -18 -14 0 -6 8 -5 20 1 11 6 20 13 20 15
0 3 -1 4 -2 4 -2 -1 -11 -3 -20 -6z"/>
<path d="M6951 4281 c-9 -6 -2 -14 23 -29 21 -12 38 -17 41 -11 4 5 1 8 -7 7
-7 -2 -12 2 -11 9 2 8 -4 10 -14 6 -10 -4 -14 -2 -9 5 8 14 -6 23 -23 13z"/>
<path d="M7035 4279 c-4 -6 -4 -13 -1 -16 3 -4 6 -1 6 6 0 7 5 9 10 6 6 -3 10
-1 10 4 0 14 -17 14 -25 0z"/>
<path d="M7076 4274 c-6 -15 -4 -15 11 -3 10 7 20 15 22 16 2 2 -3 3 -11 3 -9
0 -19 -7 -22 -16z"/>
<path d="M7112 4267 c-7 -8 -7 -18 -2 -27 6 -8 10 -10 11 -5 0 6 2 18 4 28 4
20 1 21 -13 4z"/>
<path d="M7180 4220 c-9 -6 -10 -10 -3 -10 6 0 15 5 18 10 8 12 4 12 -15 0z"/>
<path d="M7056 4198 c3 -5 10 -6 15 -3 13 9 11 12 -6 12 -8 0 -12 -4 -9 -9z"/>
<path d="M7135 4190 c-4 -6 -11 -7 -17 -4 -7 4 -8 2 -4 -4 5 -9 13 -9 27 -2
10 6 19 13 19 15 0 9 -19 5 -25 -5z"/>
<path d="M5930 4374 c0 -49 -3 -63 -12 -58 -10 5 -10 4 -2 -5 16 -17 -11 -72
-31 -64 -8 3 -15 0 -15 -6 0 -6 5 -11 10 -11 6 0 10 -4 10 -10 0 -5 -8 -7 -17
-4 -15 5 -16 4 -3 -5 22 -16 30 -13 30 10 0 11 5 17 10 14 6 -3 11 6 12 22 1
15 5 -66 8 -182 l6 -210 2 288 c1 158 0 287 -3 287 -3 0 -5 -30 -5 -66z"/>
<path d="M5912 4370 c0 -14 2 -19 5 -12 2 6 2 18 0 25 -3 6 -5 1 -5 -13z"/>
<path d="M5885 4270 c3 -5 8 -10 11 -10 2 0 4 5 4 10 0 6 -5 10 -11 10 -5 0
-7 -4 -4 -10z"/>
<path d="M5857 4177 c-3 -8 -1 -20 5 -28 8 -11 9 -10 4 4 -3 11 0 17 10 17 8
0 12 5 9 10 -9 14 -22 12 -28 -3z"/>
<path d="M5837 4142 c-5 -7 -2 -19 7 -28 19 -19 19 -24 1 -48 -10 -13 -15 -15
-15 -6 0 7 -3 10 -6 7 -4 -4 -2 -13 4 -20 7 -8 8 -18 4 -22 -4 -5 -1 -5 6 -1
7 4 10 12 6 17 -3 6 2 9 12 7 11 -2 22 -10 26 -18 5 -11 7 -9 7 6 1 12 -5 24
-12 27 -8 3 -12 18 -11 36 1 17 -2 29 -6 26 -5 -3 -10 3 -12 12 -3 13 -6 15
-11 5z"/>
<path d="M5896 4067 c3 -10 9 -15 12 -12 3 3 0 11 -7 18 -10 9 -11 8 -5 -6z"/>
<path d="M5797 4037 c-4 -11 -3 -16 3 -12 6 3 10 0 9 -7 -1 -23 -14 -50 -24
-49 -6 1 -10 -7 -11 -18 -1 -10 -4 -25 -8 -32 -4 -8 -1 -6 8 5 8 10 19 15 25
12 5 -4 13 -2 16 4 4 6 3 10 -2 9 -18 -3 -33 1 -33 10 0 4 12 7 28 5 15 -2 21
-1 15 2 -7 3 -13 13 -12 22 0 11 2 12 6 5 7 -18 20 -16 20 2 0 8 -3 13 -6 10
-2 -3 -10 7 -16 22 -10 23 -12 25 -18 10z"/>
<path d="M5905 4030 c3 -5 8 -10 11 -10 2 0 4 5 4 10 0 6 -5 10 -11 10 -5 0
-7 -4 -4 -10z"/>
<path d="M5866 3978 c3 -5 10 -6 15 -3 13 9 11 12 -6 12 -8 0 -12 -4 -9 -9z"/>
<path d="M5827 3936 c-3 -8 2 -20 11 -27 14 -11 15 -11 5 0 -6 7 -9 20 -6 27
3 8 3 14 0 14 -3 0 -7 -6 -10 -14z"/>
<path d="M5750 3888 c0 -9 5 -20 10 -23 13 -8 13 5 0 25 -8 13 -10 13 -10 -2z"/>
<path d="M5776 3887 c3 -10 9 -15 12 -12 3 3 0 11 -7 18 -10 9 -11 8 -5 -6z"/>
<path d="M5830 3881 c0 -23 23 -81 33 -81 4 0 6 -4 3 -8 -3 -5 7 -8 22 -8 19
0 28 5 28 16 0 9 -6 17 -12 17 -7 0 -10 -6 -7 -14 3 -7 0 -13 -6 -13 -6 0 -11
7 -11 16 0 8 -4 12 -10 9 -5 -3 -10 -5 -10 -3 -1 13 -29 80 -30 69z"/>
<path d="M5850 3881 c0 -6 4 -13 10 -16 6 -3 7 1 4 9 -7 18 -14 21 -14 7z"/>
<path d="M5795 3860 c-3 -6 1 -7 9 -4 18 7 21 14 7 14 -6 0 -13 -4 -16 -10z"/>
<path d="M5932 3830 c0 -19 2 -27 5 -17 2 9 2 25 0 35 -3 9 -5 1 -5 -18z"/>
<path d="M5824 3812 c3 -6 -2 -12 -11 -14 -16 -3 -17 -4 -1 -10 19 -8 33 17
16 28 -6 4 -8 3 -4 -4z"/>
<path d="M5756 3797 c3 -10 9 -15 12 -12 3 3 0 11 -7 18 -10 9 -11 8 -5 -6z"/>
<path d="M5928 3721 c-2 -38 0 -82 3 -97 4 -16 7 15 8 69 1 112 -6 130 -11 28z"/>
<path d="M5717 3773 c-4 -3 -7 -11 -7 -17 0 -6 5 -5 12 2 6 6 9 14 7 17 -3 3
-9 2 -12 -2z"/>
<path d="M5831 3766 c-8 -9 -11 -19 -7 -23 3 -3 6 0 6 8 1 10 4 9 11 -4 5 -9
7 -22 4 -27 -3 -6 1 -7 10 -4 10 4 12 10 6 18 -5 6 -10 20 -12 30 -4 18 -5 18
-18 2z"/>
<path d="M5885 3760 c-3 -6 1 -7 9 -4 18 7 21 14 7 14 -6 0 -13 -4 -16 -10z"/>
<path d="M5732 3714 c-7 -14 -16 -23 -21 -20 -5 4 -7 -3 -4 -14 3 -11 10 -23
17 -27 6 -3 8 -3 4 2 -4 4 -4 13 1 19 9 12 24 66 18 66 -2 0 -9 -12 -15 -26z"/>
<path d="M5888 3703 c5 -21 7 -23 10 -9 2 10 0 22 -6 28 -6 6 -7 0 -4 -19z"/>
<path d="M5787 3714 c-4 -4 2 -13 13 -21 15 -11 24 -11 37 -3 16 10 15 10 -4
5 -14 -4 -25 0 -30 10 -5 8 -12 12 -16 9z"/>
<path d="M5843 3670 c2 -7 7 -11 12 -10 5 1 12 -6 15 -16 6 -16 7 -15 13 5 5
19 2 22 -13 18 -11 -3 -21 -1 -24 4 -2 5 -4 5 -3 -1z"/>
<path d="M5820 3661 c0 -6 4 -12 9 -15 5 -3 7 -16 5 -29 -2 -12 -1 -15 2 -7 4
8 10 17 14 20 3 3 -2 13 -12 23 -10 9 -18 13 -18 8z"/>
<path d="M5773 3629 c-2 -23 3 -25 10 -4 4 8 3 16 -1 19 -4 3 -9 -4 -9 -15z"/>
<path d="M5803 3638 c0 -7 -3 -20 -5 -28 -3 -8 -3 -12 -1 -7 3 4 8 5 12 3 4
-3 7 4 6 14 -1 22 -11 36 -12 18z"/>
<path d="M5740 3610 c6 -11 13 -20 16 -20 2 0 0 9 -6 20 -6 11 -13 20 -16 20
-2 0 0 -9 6 -20z"/>
<path d="M5875 3600 c-3 -6 1 -7 9 -4 18 7 21 14 7 14 -6 0 -13 -4 -16 -10z"/>
<path d="M5720 3591 c0 -5 7 -12 16 -15 14 -5 15 -4 4 9 -14 17 -20 19 -20 6z"/>
<path d="M5892 3570 c0 -14 2 -19 5 -12 2 6 2 18 0 25 -3 6 -5 1 -5 -13z"/>
<path d="M5925 3580 c3 -5 8 -10 11 -10 2 0 4 5 4 10 0 6 -5 10 -11 10 -5 0
-7 -4 -4 -10z"/>
<path d="M5932 3500 c0 -14 2 -19 5 -12 2 6 2 18 0 25 -3 6 -5 1 -5 -13z"/>
<path d="M5890 3491 c0 -6 4 -13 10 -16 6 -3 7 1 4 9 -7 18 -14 21 -14 7z"/>
<path d="M7635 4236 c-14 -10 -15 -15 -4 -21 18 -12 59 -16 59 -6 0 4 -8 15
-18 24 -16 14 -21 15 -37 3z"/>
<path d="M7770 4209 c0 -5 5 -7 10 -4 6 3 10 8 10 11 0 2 -4 4 -10 4 -5 0 -10
-5 -10 -11z"/>
<path d="M6536 3535 c10 -8 23 -15 28 -15 6 0 1 7 -10 15 -10 8 -23 15 -28 15
-6 0 -1 -7 10 -15z"/>
<path d="M8241 4854 c0 -11 3 -14 6 -6 3 7 2 16 -1 19 -3 4 -6 -2 -5 -13z"/>
<path d="M8260 4823 c0 -15 -2 -16 -10 -3 -8 13 -10 13 -10 -1 0 -19 27 -45
37 -35 3 3 2 6 -4 6 -6 0 -8 11 -5 25 2 14 2 25 -2 25 -3 0 -6 -8 -6 -17z"/>
<path d="M8301 4834 c1 -21 16 -47 21 -38 4 5 0 18 -8 29 -8 10 -14 15 -13 9z"/>
<path d="M8280 4816 c0 -8 4 -17 9 -20 5 -4 7 3 4 14 -6 23 -13 26 -13 6z"/>
<path d="M8222 4800 c0 -14 2 -19 5 -12 2 6 2 18 0 25 -3 6 -5 1 -5 -13z"/>
<path d="M8340 4793 c-14 -9 -28 -22 -32 -27 -5 -7 -8 -7 -8 2 0 10 -5 10 -20
2 -11 -6 -20 -16 -19 -23 0 -9 2 -9 6 1 6 15 33 16 33 1 0 -5 -4 -7 -10 -4 -5
3 -10 -1 -10 -10 0 -9 -4 -14 -9 -10 -5 3 -13 0 -16 -6 -10 -15 -13 -69 -4
-63 4 2 9 -1 11 -8 8 -22 34 -16 36 8 1 18 -2 22 -16 17 -9 -3 -14 -3 -10 2 4
4 3 14 -2 20 -8 9 -6 14 6 19 12 5 15 2 10 -10 -6 -14 -1 -16 35 -10 23 4 46
2 53 -3 7 -6 18 -4 30 5 17 12 18 14 3 14 -9 0 -17 -5 -17 -11 0 -6 -7 -4 -15
5 -21 20 -19 24 9 21 14 -2 27 3 30 11 4 12 2 12 -14 4 -17 -9 -22 -7 -28 11
-7 19 -10 20 -15 6 -4 -10 -13 -14 -22 -11 -8 3 -15 1 -15 -5 0 -6 7 -11 15
-11 8 0 15 -5 15 -10 0 -7 -6 -7 -20 0 -12 6 -20 7 -20 1 0 -5 6 -12 13 -14 7
-4 6 -6 -4 -6 -32 -2 -29 28 6 65 22 23 40 34 50 30 9 -3 13 -2 10 4 -9 14
-17 13 -45 -7z m-50 -137 c0 -3 -4 -8 -10 -11 -5 -3 -10 -1 -10 4 0 6 5 11 10
11 6 0 10 -2 10 -4z"/>
<path d="M8241 4764 c0 -11 3 -14 6 -6 3 7 2 16 -1 19 -3 4 -6 -2 -5 -13z"/>
<path d="M8221 4748 c-1 -15 4 -30 11 -34 7 -4 8 -3 4 4 -4 7 -1 12 6 12 9 0
9 3 2 8 -6 4 -14 14 -17 22 -3 9 -6 4 -6 -12z"/>
<path d="M8426 4732 c-3 -4 4 -9 15 -9 23 -2 25 3 4 10 -8 4 -16 3 -19 -1z"/>
<path d="M8435 4699 c-4 -6 -5 -12 -2 -15 2 -3 7 2 10 11 7 17 1 20 -8 4z"/>
<path d="M8220 4671 c0 -17 2 -31 4 -31 8 0 13 51 5 56 -5 3 -9 -9 -9 -25z"/>
<path d="M8310 4672 c0 -5 7 -9 15 -9 8 0 12 4 9 9 -3 4 -9 8 -15 8 -5 0 -9
-4 -9 -8z"/>
<path d="M8400 4671 c0 -6 4 -13 10 -16 6 -3 7 1 4 9 -7 18 -14 21 -14 7z"/>
<path d="M8375 4648 c1 -12 11 -26 23 -31 12 -6 22 -14 22 -19 0 -5 -3 -7 -8
-4 -4 2 -16 -2 -27 -10 -10 -8 -14 -14 -8 -14 7 0 15 4 18 10 4 6 13 5 26 -3
16 -10 21 -9 29 3 5 8 10 20 10 25 -1 6 -5 2 -11 -7 -5 -10 -15 -18 -22 -18
-8 0 -7 3 2 9 11 7 8 13 -16 28 -16 10 -28 23 -26 30 2 6 0 14 -5 17 -5 3 -8
-5 -7 -16z"/>
<path d="M8341 4651 c-11 -7 -11 -9 0 -14 11 -4 12 -7 2 -18 -10 -9 -13 -10
-13 -1 0 7 -4 12 -10 12 -5 0 -7 -7 -4 -15 7 -18 -7 -20 -24 -3 -7 7 -12 10
-13 8 -8 -45 0 -65 16 -40 4 6 14 10 23 9 10 -1 28 3 42 9 16 7 19 11 9 11
-11 1 -15 9 -14 26 2 14 3 25 2 25 -1 0 -8 -4 -16 -9z"/>
<path d="M8483 4614 c0 -17 2 -22 7 -13 5 6 6 18 3 26 -8 19 -10 16 -10 -13z"/>
<path d="M8230 4620 c20 -13 33 -13 25 0 -3 6 -14 10 -23 10 -15 0 -15 -2 -2
-10z"/>
<path d="M8471 4561 c-8 -5 -9 -11 -3 -15 5 -3 12 1 16 9 6 17 6 18 -13 6z"/>
<path d="M8960 4427 c-8 -8 -112 -75 -230 -149 -118 -74 -368 -233 -555 -353
-187 -120 -380 -243 -428 -274 -93 -59 -373 -236 -722 -456 -705 -444 -1055
-665 -1390 -879 -27 -18 -164 -103 -302 -190 -155 -96 -253 -163 -253 -173 0
-12 -4 -11 -17 5 -27 31 -214 143 -226 135 -5 -3 -7 -1 -4 4 4 6 -47 45 -116
89 -288 183 -379 242 -499 320 -84 55 -134 81 -145 78 -12 -4 -14 -3 -6 3 9 6
-10 24 -65 59 -471 307 -504 327 -514 313 -8 -11 -9 -11 -4 3 4 13 -15 30 -75
68 -44 28 -84 48 -91 44 -6 -4 -8 -3 -5 3 9 15 -38 44 -60 37 -13 -4 -14 -3
-5 4 10 7 1 17 -37 41 -28 19 -55 29 -62 25 -7 -4 -9 -3 -6 3 3 5 -53 48 -126
95 -265 171 -685 443 -802 520 -66 42 -185 119 -265 170 -135 85 -207 132
-510 330 -63 41 -134 87 -157 101 l-42 27 0 -348 1 -349 27 -25 c15 -14 89
-65 166 -113 149 -93 314 -200 471 -302 52 -35 97 -63 99 -63 3 0 27 -16 54
-35 26 -19 53 -35 60 -35 6 0 11 -4 11 -9 0 -5 11 -12 25 -15 14 -4 25 -11 25
-16 0 -6 7 -10 15 -10 8 0 15 -4 15 -8 0 -5 19 -18 43 -30 24 -12 54 -31 67
-42 12 -11 27 -17 31 -14 5 3 9 1 9 -5 0 -10 97 -77 129 -89 9 -3 21 -10 26
-14 6 -5 37 -26 70 -47 88 -56 230 -148 310 -200 39 -24 86 -55 105 -67 19
-12 95 -61 169 -109 74 -47 141 -89 150 -93 9 -3 37 -21 63 -39 26 -18 52 -33
58 -33 5 0 10 -4 10 -8 0 -5 12 -15 27 -23 16 -8 39 -24 52 -36 14 -12 28 -20
33 -17 4 3 8 0 8 -6 0 -6 5 -8 10 -5 6 3 10 2 10 -2 0 -9 97 -76 103 -71 1 2
9 -3 17 -9 43 -36 79 -62 110 -79 19 -10 37 -22 40 -25 10 -12 68 -38 74 -34
3 3 4 2 1 -2 -5 -6 87 -73 100 -73 4 0 21 -11 39 -25 18 -14 36 -25 39 -25 3
0 18 -11 33 -25 14 -13 30 -22 35 -20 4 3 11 -1 16 -8 4 -8 23 -22 42 -32 19
-9 43 -25 54 -36 11 -10 24 -16 29 -13 4 3 8 0 8 -5 0 -6 6 -11 13 -11 8 0 22
-9 32 -20 10 -11 22 -17 26 -14 5 3 9 0 9 -5 0 -6 5 -11 10 -11 6 0 18 -7 28
-16 21 -20 136 -94 194 -126 24 -13 47 -29 51 -35 4 -7 14 -13 22 -13 7 0 15
-4 17 -8 4 -10 119 -86 131 -87 4 0 11 -5 15 -10 4 -6 36 -29 70 -53 52 -35
67 -41 79 -31 11 10 14 10 11 -2 -2 -8 2 -13 9 -12 7 2 10 -4 7 -12 -10 -24 6
-17 16 8 9 19 10 19 8 2 -3 -25 9 -45 27 -45 8 0 78 42 157 93 79 52 251 164
383 249 132 85 332 215 445 288 113 73 277 179 365 235 88 56 275 175 415 265
434 278 719 459 855 543 132 81 387 244 815 519 129 83 278 177 330 208 86 53
95 62 103 95 4 21 6 188 5 372 -3 296 -5 332 -18 320z m-3883 -2534 c-3 -10
-5 -4 -5 12 0 17 2 24 5 18 2 -7 2 -21 0 -30z m0 -45 c-3 -8 -6 -5 -6 6 -1 11
2 17 5 13 3 -3 4 -12 1 -19z m0 -80 c-2 -13 -4 -5 -4 17 -1 22 1 32 4 23 2
-10 2 -28 0 -40z m0 -75 c-3 -10 -5 -4 -5 12 0 17 2 24 5 18 2 -7 2 -21 0 -30z
m0 -75 c-2 -13 -4 -5 -4 17 -1 22 1 32 4 23 2 -10 2 -28 0 -40z m0 -140 c-2
-18 -4 -4 -4 32 0 36 2 50 4 33 2 -18 2 -48 0 -65z m0 -75 c-3 -10 -5 -4 -5
12 0 17 2 24 5 18 2 -7 2 -21 0 -30z m3 -48 c0 -14 -4 -25 -9 -25 -4 0 -6 11
-3 25 2 14 6 25 8 25 2 0 4 -11 4 -25z"/>
<path d="M8716 4398 c3 -5 10 -6 15 -3 13 9 11 12 -6 12 -8 0 -12 -4 -9 -9z"/>
<path d="M7947 4087 c-3 -8 3 -14 16 -15 12 0 17 2 12 6 -6 4 -13 11 -16 15
-4 4 -9 2 -12 -6z"/>
<path d="M7917 4059 c7 -7 15 -10 18 -7 3 3 -2 9 -12 12 -14 6 -15 5 -6 -5z"/>
<path d="M8035 4039 c-4 -6 -5 -12 -2 -15 2 -3 7 2 10 11 7 17 1 20 -8 4z"/>
<path d="M7744 4024 c-18 -14 -18 -15 4 -4 12 6 22 13 22 15 0 8 -5 6 -26 -11z"/>
<path d="M7690 3990 c-8 -5 -12 -12 -9 -15 4 -3 12 1 19 10 14 17 11 19 -10 5z"/>
<path d="M7736 3977 c3 -10 9 -15 12 -12 3 3 0 11 -7 18 -10 9 -11 8 -5 -6z"/>
<path d="M8169 3973 c-13 -16 -12 -17 4 -4 16 13 21 21 13 21 -2 0 -10 -8 -17
-17z"/>
<path d="M7970 3950 c-9 -6 -10 -10 -3 -10 6 0 15 5 18 10 8 12 4 12 -15 0z"/>
<path d="M8016 3878 c3 -5 10 -6 15 -3 13 9 11 12 -6 12 -8 0 -12 -4 -9 -9z"/>
<path d="M7596 3866 c10 -8 21 -12 24 -10 5 6 -21 24 -34 24 -6 0 -1 -6 10
-14z"/>
<path d="M7445 3835 c-16 -14 -25 -25 -19 -25 5 0 20 9 31 19 12 11 24 17 29
13 4 -4 4 -1 0 6 -9 15 -5 16 -41 -13z"/>
<path d="M7845 3841 c3 -3 17 -6 31 -7 13 0 22 2 19 5 -3 3 -17 6 -31 7 -13 0
-22 -2 -19 -5z"/>
<path d="M7475 3810 c-3 -6 1 -7 9 -4 18 7 21 14 7 14 -6 0 -13 -4 -16 -10z"/>
<path d="M7390 3790 c-6 -11 -8 -20 -6 -20 3 0 10 9 16 20 6 11 8 20 6 20 -3
0 -10 -9 -16 -20z"/>
<path d="M7354 3779 c-3 -6 -2 -15 3 -20 5 -5 9 -1 9 11 0 23 -2 24 -12 9z"/>
<path d="M7314 3756 c-19 -15 -19 -15 0 -12 11 2 22 8 24 14 5 16 0 15 -24 -2z"/>
<path d="M7383 3745 c0 -8 4 -12 9 -9 5 3 6 10 3 15 -9 13 -12 11 -12 -6z"/>
<path d="M7435 3720 c-3 -6 1 -7 9 -4 18 7 21 14 7 14 -6 0 -13 -4 -16 -10z"/>
<path d="M7230 3699 c-14 -11 -19 -18 -12 -14 7 4 21 1 30 -7 15 -12 16 -11 4
4 -15 19 -2 31 25 22 15 -5 15 -4 3 5 -20 14 -21 14 -50 -10z"/>
<path d="M7170 3656 c0 -2 8 -10 18 -17 15 -13 16 -12 3 4 -13 16 -21 21 -21
13z"/>
<path d="M7103 3614 l-28 -25 33 22 c17 13 32 24 32 26 0 8 -11 1 -37 -23z"/>
<path d="M7245 3540 c-3 -5 -1 -10 4 -10 6 0 11 5 11 10 0 6 -2 10 -4 10 -3 0
-8 -4 -11 -10z"/>
<path d="M6950 3520 c-14 -11 -20 -20 -14 -20 6 0 19 9 29 20 23 25 17 25 -15
0z"/>
<path d="M7453 3525 c0 -7 6 -11 14 -8 7 3 13 6 13 8 0 2 -6 5 -13 8 -8 3 -14
-1 -14 -8z"/>
<path d="M3310 3487 c0 -3 12 -12 26 -22 15 -9 23 -12 20 -6 -7 11 -46 35 -46
28z"/>
<path d="M7290 3470 c0 -5 5 -10 11 -10 5 0 7 5 4 10 -3 6 -8 10 -11 10 -2 0
-4 -4 -4 -10z"/>
<path d="M6970 3461 c0 -7 -5 -9 -12 -5 -7 5 -8 3 -3 -5 5 -9 10 -10 18 -2 6
6 8 14 4 18 -4 3 -7 1 -7 -6z"/>
<path d="M6813 3433 c-10 -10 -14 -15 -8 -11 7 4 15 5 18 1 4 -3 7 -1 7 6 0 8
6 11 16 7 8 -3 12 -2 9 4 -9 14 -20 12 -42 -7z"/>
<path d="M5677 3419 c7 -7 15 -10 18 -7 3 3 -2 9 -12 12 -14 6 -15 5 -6 -5z"/>
<path d="M6764 3402 c-9 -5 -8 -10 1 -19 11 -10 13 -9 12 7 -1 11 -1 20 -2 20
0 0 -5 -4 -11 -8z"/>
<path d="M5656 3382 c-3 -5 1 -9 9 -9 8 0 12 4 9 9 -3 4 -7 8 -9 8 -2 0 -6 -4
-9 -8z"/>
<path d="M7215 3370 c-3 -6 1 -7 9 -4 18 7 21 14 7 14 -6 0 -13 -4 -16 -10z"/>
<path d="M3510 3366 c0 -2 8 -10 18 -17 15 -13 16 -12 3 4 -13 16 -21 21 -21
13z"/>
<path d="M6961 3354 c0 -11 3 -14 6 -6 3 7 2 16 -1 19 -3 4 -6 -2 -5 -13z"/>
<path d="M5775 3280 c-3 -5 -1 -10 4 -10 6 0 11 5 11 10 0 6 -2 10 -4 10 -3 0
-8 -4 -11 -10z"/>
<path d="M6564 3274 c-18 -14 -18 -15 4 -4 12 6 22 13 22 15 0 8 -5 6 -26 -11z"/>
<path d="M5488 3273 c7 -3 16 -2 19 1 4 3 -2 6 -13 5 -11 0 -14 -3 -6 -6z"/>
<path d="M3777 3189 c7 -7 15 -10 18 -7 3 3 -2 9 -12 12 -14 6 -15 5 -6 -5z"/>
<path d="M3830 3156 c0 -2 7 -7 16 -10 8 -3 12 -2 9 4 -6 10 -25 14 -25 6z"/>
<path d="M3900 3116 c0 -2 8 -10 18 -17 15 -13 16 -12 3 4 -13 16 -21 21 -21
13z"/>
<path d="M3971 3067 c2 -1 13 -9 24 -17 19 -14 19 -14 6 3 -7 9 -18 17 -24 17
-6 0 -8 -1 -6 -3z"/>
<path d="M4050 3017 c0 -3 12 -12 26 -22 15 -9 23 -12 20 -6 -7 11 -46 35 -46
28z"/>
<path d="M5434 2974 c-18 -14 -18 -15 4 -4 12 6 22 13 22 15 0 8 -5 6 -26 -11z"/>
<path d="M4205 2915 c11 -9 29 -21 40 -26 l20 -10 -20 16 c-11 9 -29 21 -40
26 l-20 10 20 -16z"/>
<path d="M4270 2876 c0 -2 8 -10 18 -17 15 -13 16 -12 3 4 -13 16 -21 21 -21
13z"/>
<path d="M4962 2814 c10 -10 20 -16 22 -13 3 3 -5 11 -17 18 -21 13 -21 12 -5
-5z"/>
<path d="M5047 2759 c7 -7 15 -10 18 -7 3 3 -2 9 -12 12 -14 6 -15 5 -6 -5z"/>
<path d="M4630 2646 c0 -2 8 -10 18 -17 15 -13 16 -12 3 4 -13 16 -21 21 -21
13z"/>
<path d="M4880 2476 c0 -2 7 -7 16 -10 8 -3 12 -2 9 4 -6 10 -25 14 -25 6z"/>
<path d="M4927 2449 c7 -7 15 -10 18 -7 3 3 -2 9 -12 12 -14 6 -15 5 -6 -5z"/>
</g>
</svg>
